<?xml version="1.0" encoding="utf-8" standalone="no"?>
<!DOCTYPE svg PUBLIC "-//W3C//DTD SVG 1.1//EN"
  "http://www.w3.org/Graphics/SVG/1.1/DTD/svg11.dtd">
<svg xmlns:xlink="http://www.w3.org/1999/xlink" width="460.8pt" height="345.6pt" viewBox="0 0 460.8 345.6" xmlns="http://www.w3.org/2000/svg" version="1.1">
 <metadata>
  <rdf:RDF xmlns:dc="http://purl.org/dc/elements/1.1/" xmlns:cc="http://creativecommons.org/ns#" xmlns:rdf="http://www.w3.org/1999/02/22-rdf-syntax-ns#">
   <cc:Work>
    <dc:type rdf:resource="http://purl.org/dc/dcmitype/StillImage"/>
    <dc:date>2022-10-01T14:03:35.328209</dc:date>
    <dc:format>image/svg+xml</dc:format>
    <dc:creator>
     <cc:Agent>
      <dc:title>Matplotlib v3.6.0, https://matplotlib.org/</dc:title>
     </cc:Agent>
    </dc:creator>
   </cc:Work>
  </rdf:RDF>
 </metadata>
 <defs>
  <style type="text/css">*{stroke-linejoin: round; stroke-linecap: butt}</style>
 </defs>
 <g id="figure_1">
  <g id="patch_1">
   <path d="M 0 345.6 
L 460.8 345.6 
L 460.8 0 
L 0 0 
z
" style="fill: #ffffff"/>
  </g>
  <g id="axes_1">
   <g id="patch_2">
    <path d="M 57.6 307.584 
L 414.72 307.584 
L 414.72 41.472 
L 57.6 41.472 
z
" style="fill: #ffffff"/>
   </g>
   <g id="matplotlib.axis_1">
    <g id="xtick_1">
     <g id="line2d_1">
      <defs>
       <path id="m223c2074ba" d="M 0 0 
L 0 3.5 
" style="stroke: #000000; stroke-width: 0.8"/>
      </defs>
      <g>
       <use xlink:href="#m223c2074ba" x="57.6" y="307.584" style="stroke: #000000; stroke-width: 0.8"/>
      </g>
     </g>
     <g id="text_1">
      <!-- 0 -->
      <g transform="translate(54.41875 322.182437) scale(0.1 -0.1)">
       <defs>
        <path id="DejaVuSans-30" d="M 2034 4250 
Q 1547 4250 1301 3770 
Q 1056 3291 1056 2328 
Q 1056 1369 1301 889 
Q 1547 409 2034 409 
Q 2525 409 2770 889 
Q 3016 1369 3016 2328 
Q 3016 3291 2770 3770 
Q 2525 4250 2034 4250 
z
M 2034 4750 
Q 2819 4750 3233 4129 
Q 3647 3509 3647 2328 
Q 3647 1150 3233 529 
Q 2819 -91 2034 -91 
Q 1250 -91 836 529 
Q 422 1150 422 2328 
Q 422 3509 836 4129 
Q 1250 4750 2034 4750 
z
" transform="scale(0.015625)"/>
       </defs>
       <use xlink:href="#DejaVuSans-30"/>
      </g>
     </g>
    </g>
    <g id="xtick_2">
     <g id="line2d_2">
      <g>
       <use xlink:href="#m223c2074ba" x="129.024" y="307.584" style="stroke: #000000; stroke-width: 0.8"/>
      </g>
     </g>
     <g id="text_2">
      <!-- 20 -->
      <g transform="translate(122.6615 322.182437) scale(0.1 -0.1)">
       <defs>
        <path id="DejaVuSans-32" d="M 1228 531 
L 3431 531 
L 3431 0 
L 469 0 
L 469 531 
Q 828 903 1448 1529 
Q 2069 2156 2228 2338 
Q 2531 2678 2651 2914 
Q 2772 3150 2772 3378 
Q 2772 3750 2511 3984 
Q 2250 4219 1831 4219 
Q 1534 4219 1204 4116 
Q 875 4013 500 3803 
L 500 4441 
Q 881 4594 1212 4672 
Q 1544 4750 1819 4750 
Q 2544 4750 2975 4387 
Q 3406 4025 3406 3419 
Q 3406 3131 3298 2873 
Q 3191 2616 2906 2266 
Q 2828 2175 2409 1742 
Q 1991 1309 1228 531 
z
" transform="scale(0.015625)"/>
       </defs>
       <use xlink:href="#DejaVuSans-32"/>
       <use xlink:href="#DejaVuSans-30" x="63.623047"/>
      </g>
     </g>
    </g>
    <g id="xtick_3">
     <g id="line2d_3">
      <g>
       <use xlink:href="#m223c2074ba" x="200.448" y="307.584" style="stroke: #000000; stroke-width: 0.8"/>
      </g>
     </g>
     <g id="text_3">
      <!-- 40 -->
      <g transform="translate(194.0855 322.182437) scale(0.1 -0.1)">
       <defs>
        <path id="DejaVuSans-34" d="M 2419 4116 
L 825 1625 
L 2419 1625 
L 2419 4116 
z
M 2253 4666 
L 3047 4666 
L 3047 1625 
L 3713 1625 
L 3713 1100 
L 3047 1100 
L 3047 0 
L 2419 0 
L 2419 1100 
L 313 1100 
L 313 1709 
L 2253 4666 
z
" transform="scale(0.015625)"/>
       </defs>
       <use xlink:href="#DejaVuSans-34"/>
       <use xlink:href="#DejaVuSans-30" x="63.623047"/>
      </g>
     </g>
    </g>
    <g id="xtick_4">
     <g id="line2d_4">
      <g>
       <use xlink:href="#m223c2074ba" x="271.872" y="307.584" style="stroke: #000000; stroke-width: 0.8"/>
      </g>
     </g>
     <g id="text_4">
      <!-- 60 -->
      <g transform="translate(265.5095 322.182437) scale(0.1 -0.1)">
       <defs>
        <path id="DejaVuSans-36" d="M 2113 2584 
Q 1688 2584 1439 2293 
Q 1191 2003 1191 1497 
Q 1191 994 1439 701 
Q 1688 409 2113 409 
Q 2538 409 2786 701 
Q 3034 994 3034 1497 
Q 3034 2003 2786 2293 
Q 2538 2584 2113 2584 
z
M 3366 4563 
L 3366 3988 
Q 3128 4100 2886 4159 
Q 2644 4219 2406 4219 
Q 1781 4219 1451 3797 
Q 1122 3375 1075 2522 
Q 1259 2794 1537 2939 
Q 1816 3084 2150 3084 
Q 2853 3084 3261 2657 
Q 3669 2231 3669 1497 
Q 3669 778 3244 343 
Q 2819 -91 2113 -91 
Q 1303 -91 875 529 
Q 447 1150 447 2328 
Q 447 3434 972 4092 
Q 1497 4750 2381 4750 
Q 2619 4750 2861 4703 
Q 3103 4656 3366 4563 
z
" transform="scale(0.015625)"/>
       </defs>
       <use xlink:href="#DejaVuSans-36"/>
       <use xlink:href="#DejaVuSans-30" x="63.623047"/>
      </g>
     </g>
    </g>
    <g id="xtick_5">
     <g id="line2d_5">
      <g>
       <use xlink:href="#m223c2074ba" x="343.296" y="307.584" style="stroke: #000000; stroke-width: 0.8"/>
      </g>
     </g>
     <g id="text_5">
      <!-- 80 -->
      <g transform="translate(336.9335 322.182437) scale(0.1 -0.1)">
       <defs>
        <path id="DejaVuSans-38" d="M 2034 2216 
Q 1584 2216 1326 1975 
Q 1069 1734 1069 1313 
Q 1069 891 1326 650 
Q 1584 409 2034 409 
Q 2484 409 2743 651 
Q 3003 894 3003 1313 
Q 3003 1734 2745 1975 
Q 2488 2216 2034 2216 
z
M 1403 2484 
Q 997 2584 770 2862 
Q 544 3141 544 3541 
Q 544 4100 942 4425 
Q 1341 4750 2034 4750 
Q 2731 4750 3128 4425 
Q 3525 4100 3525 3541 
Q 3525 3141 3298 2862 
Q 3072 2584 2669 2484 
Q 3125 2378 3379 2068 
Q 3634 1759 3634 1313 
Q 3634 634 3220 271 
Q 2806 -91 2034 -91 
Q 1263 -91 848 271 
Q 434 634 434 1313 
Q 434 1759 690 2068 
Q 947 2378 1403 2484 
z
M 1172 3481 
Q 1172 3119 1398 2916 
Q 1625 2713 2034 2713 
Q 2441 2713 2670 2916 
Q 2900 3119 2900 3481 
Q 2900 3844 2670 4047 
Q 2441 4250 2034 4250 
Q 1625 4250 1398 4047 
Q 1172 3844 1172 3481 
z
" transform="scale(0.015625)"/>
       </defs>
       <use xlink:href="#DejaVuSans-38"/>
       <use xlink:href="#DejaVuSans-30" x="63.623047"/>
      </g>
     </g>
    </g>
    <g id="xtick_6">
     <g id="line2d_6">
      <g>
       <use xlink:href="#m223c2074ba" x="414.72" y="307.584" style="stroke: #000000; stroke-width: 0.8"/>
      </g>
     </g>
     <g id="text_6">
      <!-- 100 -->
      <g transform="translate(405.17625 322.182437) scale(0.1 -0.1)">
       <defs>
        <path id="DejaVuSans-31" d="M 794 531 
L 1825 531 
L 1825 4091 
L 703 3866 
L 703 4441 
L 1819 4666 
L 2450 4666 
L 2450 531 
L 3481 531 
L 3481 0 
L 794 0 
L 794 531 
z
" transform="scale(0.015625)"/>
       </defs>
       <use xlink:href="#DejaVuSans-31"/>
       <use xlink:href="#DejaVuSans-30" x="63.623047"/>
       <use xlink:href="#DejaVuSans-30" x="127.246094"/>
      </g>
     </g>
    </g>
    <g id="text_7">
     <!-- Iterations -->
     <g transform="translate(212.346719 335.860562) scale(0.1 -0.1)">
      <defs>
       <path id="DejaVuSans-49" d="M 628 4666 
L 1259 4666 
L 1259 0 
L 628 0 
L 628 4666 
z
" transform="scale(0.015625)"/>
       <path id="DejaVuSans-74" d="M 1172 4494 
L 1172 3500 
L 2356 3500 
L 2356 3053 
L 1172 3053 
L 1172 1153 
Q 1172 725 1289 603 
Q 1406 481 1766 481 
L 2356 481 
L 2356 0 
L 1766 0 
Q 1100 0 847 248 
Q 594 497 594 1153 
L 594 3053 
L 172 3053 
L 172 3500 
L 594 3500 
L 594 4494 
L 1172 4494 
z
" transform="scale(0.015625)"/>
       <path id="DejaVuSans-65" d="M 3597 1894 
L 3597 1613 
L 953 1613 
Q 991 1019 1311 708 
Q 1631 397 2203 397 
Q 2534 397 2845 478 
Q 3156 559 3463 722 
L 3463 178 
Q 3153 47 2828 -22 
Q 2503 -91 2169 -91 
Q 1331 -91 842 396 
Q 353 884 353 1716 
Q 353 2575 817 3079 
Q 1281 3584 2069 3584 
Q 2775 3584 3186 3129 
Q 3597 2675 3597 1894 
z
M 3022 2063 
Q 3016 2534 2758 2815 
Q 2500 3097 2075 3097 
Q 1594 3097 1305 2825 
Q 1016 2553 972 2059 
L 3022 2063 
z
" transform="scale(0.015625)"/>
       <path id="DejaVuSans-72" d="M 2631 2963 
Q 2534 3019 2420 3045 
Q 2306 3072 2169 3072 
Q 1681 3072 1420 2755 
Q 1159 2438 1159 1844 
L 1159 0 
L 581 0 
L 581 3500 
L 1159 3500 
L 1159 2956 
Q 1341 3275 1631 3429 
Q 1922 3584 2338 3584 
Q 2397 3584 2469 3576 
Q 2541 3569 2628 3553 
L 2631 2963 
z
" transform="scale(0.015625)"/>
       <path id="DejaVuSans-61" d="M 2194 1759 
Q 1497 1759 1228 1600 
Q 959 1441 959 1056 
Q 959 750 1161 570 
Q 1363 391 1709 391 
Q 2188 391 2477 730 
Q 2766 1069 2766 1631 
L 2766 1759 
L 2194 1759 
z
M 3341 1997 
L 3341 0 
L 2766 0 
L 2766 531 
Q 2569 213 2275 61 
Q 1981 -91 1556 -91 
Q 1019 -91 701 211 
Q 384 513 384 1019 
Q 384 1609 779 1909 
Q 1175 2209 1959 2209 
L 2766 2209 
L 2766 2266 
Q 2766 2663 2505 2880 
Q 2244 3097 1772 3097 
Q 1472 3097 1187 3025 
Q 903 2953 641 2809 
L 641 3341 
Q 956 3463 1253 3523 
Q 1550 3584 1831 3584 
Q 2591 3584 2966 3190 
Q 3341 2797 3341 1997 
z
" transform="scale(0.015625)"/>
       <path id="DejaVuSans-69" d="M 603 3500 
L 1178 3500 
L 1178 0 
L 603 0 
L 603 3500 
z
M 603 4863 
L 1178 4863 
L 1178 4134 
L 603 4134 
L 603 4863 
z
" transform="scale(0.015625)"/>
       <path id="DejaVuSans-6f" d="M 1959 3097 
Q 1497 3097 1228 2736 
Q 959 2375 959 1747 
Q 959 1119 1226 758 
Q 1494 397 1959 397 
Q 2419 397 2687 759 
Q 2956 1122 2956 1747 
Q 2956 2369 2687 2733 
Q 2419 3097 1959 3097 
z
M 1959 3584 
Q 2709 3584 3137 3096 
Q 3566 2609 3566 1747 
Q 3566 888 3137 398 
Q 2709 -91 1959 -91 
Q 1206 -91 779 398 
Q 353 888 353 1747 
Q 353 2609 779 3096 
Q 1206 3584 1959 3584 
z
" transform="scale(0.015625)"/>
       <path id="DejaVuSans-6e" d="M 3513 2113 
L 3513 0 
L 2938 0 
L 2938 2094 
Q 2938 2591 2744 2837 
Q 2550 3084 2163 3084 
Q 1697 3084 1428 2787 
Q 1159 2491 1159 1978 
L 1159 0 
L 581 0 
L 581 3500 
L 1159 3500 
L 1159 2956 
Q 1366 3272 1645 3428 
Q 1925 3584 2291 3584 
Q 2894 3584 3203 3211 
Q 3513 2838 3513 2113 
z
" transform="scale(0.015625)"/>
       <path id="DejaVuSans-73" d="M 2834 3397 
L 2834 2853 
Q 2591 2978 2328 3040 
Q 2066 3103 1784 3103 
Q 1356 3103 1142 2972 
Q 928 2841 928 2578 
Q 928 2378 1081 2264 
Q 1234 2150 1697 2047 
L 1894 2003 
Q 2506 1872 2764 1633 
Q 3022 1394 3022 966 
Q 3022 478 2636 193 
Q 2250 -91 1575 -91 
Q 1294 -91 989 -36 
Q 684 19 347 128 
L 347 722 
Q 666 556 975 473 
Q 1284 391 1588 391 
Q 1994 391 2212 530 
Q 2431 669 2431 922 
Q 2431 1156 2273 1281 
Q 2116 1406 1581 1522 
L 1381 1569 
Q 847 1681 609 1914 
Q 372 2147 372 2553 
Q 372 3047 722 3315 
Q 1072 3584 1716 3584 
Q 2034 3584 2315 3537 
Q 2597 3491 2834 3397 
z
" transform="scale(0.015625)"/>
      </defs>
      <use xlink:href="#DejaVuSans-49"/>
      <use xlink:href="#DejaVuSans-74" x="29.492188"/>
      <use xlink:href="#DejaVuSans-65" x="68.701172"/>
      <use xlink:href="#DejaVuSans-72" x="130.224609"/>
      <use xlink:href="#DejaVuSans-61" x="171.337891"/>
      <use xlink:href="#DejaVuSans-74" x="232.617188"/>
      <use xlink:href="#DejaVuSans-69" x="271.826172"/>
      <use xlink:href="#DejaVuSans-6f" x="299.609375"/>
      <use xlink:href="#DejaVuSans-6e" x="360.791016"/>
      <use xlink:href="#DejaVuSans-73" x="424.169922"/>
     </g>
    </g>
   </g>
   <g id="matplotlib.axis_2">
    <g id="ytick_1">
     <g id="line2d_7">
      <defs>
       <path id="m6a7832ad28" d="M 0 0 
L -3.5 0 
" style="stroke: #000000; stroke-width: 0.8"/>
      </defs>
      <g>
       <use xlink:href="#m6a7832ad28" x="57.6" y="280.9728" style="stroke: #000000; stroke-width: 0.8"/>
      </g>
     </g>
     <g id="text_8">
      <!-- −0.004 -->
      <g transform="translate(13.592188 284.772019) scale(0.1 -0.1)">
       <defs>
        <path id="DejaVuSans-2212" d="M 678 2272 
L 4684 2272 
L 4684 1741 
L 678 1741 
L 678 2272 
z
" transform="scale(0.015625)"/>
        <path id="DejaVuSans-2e" d="M 684 794 
L 1344 794 
L 1344 0 
L 684 0 
L 684 794 
z
" transform="scale(0.015625)"/>
       </defs>
       <use xlink:href="#DejaVuSans-2212"/>
       <use xlink:href="#DejaVuSans-30" x="83.789062"/>
       <use xlink:href="#DejaVuSans-2e" x="147.412109"/>
       <use xlink:href="#DejaVuSans-30" x="179.199219"/>
       <use xlink:href="#DejaVuSans-30" x="242.822266"/>
       <use xlink:href="#DejaVuSans-34" x="306.445312"/>
      </g>
     </g>
    </g>
    <g id="ytick_2">
     <g id="line2d_8">
      <g>
       <use xlink:href="#m6a7832ad28" x="57.6" y="227.7504" style="stroke: #000000; stroke-width: 0.8"/>
      </g>
     </g>
     <g id="text_9">
      <!-- −0.002 -->
      <g transform="translate(13.592188 231.549619) scale(0.1 -0.1)">
       <use xlink:href="#DejaVuSans-2212"/>
       <use xlink:href="#DejaVuSans-30" x="83.789062"/>
       <use xlink:href="#DejaVuSans-2e" x="147.412109"/>
       <use xlink:href="#DejaVuSans-30" x="179.199219"/>
       <use xlink:href="#DejaVuSans-30" x="242.822266"/>
       <use xlink:href="#DejaVuSans-32" x="306.445312"/>
      </g>
     </g>
    </g>
    <g id="ytick_3">
     <g id="line2d_9">
      <g>
       <use xlink:href="#m6a7832ad28" x="57.6" y="174.528" style="stroke: #000000; stroke-width: 0.8"/>
      </g>
     </g>
     <g id="text_10">
      <!-- 0.000 -->
      <g transform="translate(21.971875 178.327219) scale(0.1 -0.1)">
       <use xlink:href="#DejaVuSans-30"/>
       <use xlink:href="#DejaVuSans-2e" x="63.623047"/>
       <use xlink:href="#DejaVuSans-30" x="95.410156"/>
       <use xlink:href="#DejaVuSans-30" x="159.033203"/>
       <use xlink:href="#DejaVuSans-30" x="222.65625"/>
      </g>
     </g>
    </g>
    <g id="ytick_4">
     <g id="line2d_10">
      <g>
       <use xlink:href="#m6a7832ad28" x="57.6" y="121.3056" style="stroke: #000000; stroke-width: 0.8"/>
      </g>
     </g>
     <g id="text_11">
      <!-- 0.002 -->
      <g transform="translate(21.971875 125.104819) scale(0.1 -0.1)">
       <use xlink:href="#DejaVuSans-30"/>
       <use xlink:href="#DejaVuSans-2e" x="63.623047"/>
       <use xlink:href="#DejaVuSans-30" x="95.410156"/>
       <use xlink:href="#DejaVuSans-30" x="159.033203"/>
       <use xlink:href="#DejaVuSans-32" x="222.65625"/>
      </g>
     </g>
    </g>
    <g id="ytick_5">
     <g id="line2d_11">
      <g>
       <use xlink:href="#m6a7832ad28" x="57.6" y="68.0832" style="stroke: #000000; stroke-width: 0.8"/>
      </g>
     </g>
     <g id="text_12">
      <!-- 0.004 -->
      <g transform="translate(21.971875 71.882419) scale(0.1 -0.1)">
       <use xlink:href="#DejaVuSans-30"/>
       <use xlink:href="#DejaVuSans-2e" x="63.623047"/>
       <use xlink:href="#DejaVuSans-30" x="95.410156"/>
       <use xlink:href="#DejaVuSans-30" x="159.033203"/>
       <use xlink:href="#DejaVuSans-34" x="222.65625"/>
      </g>
     </g>
    </g>
    <g id="text_13">
     <!-- Mean difference in shap values of protected attribute 'sex' -->
     <g transform="translate(7.5125 320.973313) rotate(-90) scale(0.1 -0.1)">
      <defs>
       <path id="DejaVuSans-4d" d="M 628 4666 
L 1569 4666 
L 2759 1491 
L 3956 4666 
L 4897 4666 
L 4897 0 
L 4281 0 
L 4281 4097 
L 3078 897 
L 2444 897 
L 1241 4097 
L 1241 0 
L 628 0 
L 628 4666 
z
" transform="scale(0.015625)"/>
       <path id="DejaVuSans-20" transform="scale(0.015625)"/>
       <path id="DejaVuSans-64" d="M 2906 2969 
L 2906 4863 
L 3481 4863 
L 3481 0 
L 2906 0 
L 2906 525 
Q 2725 213 2448 61 
Q 2172 -91 1784 -91 
Q 1150 -91 751 415 
Q 353 922 353 1747 
Q 353 2572 751 3078 
Q 1150 3584 1784 3584 
Q 2172 3584 2448 3432 
Q 2725 3281 2906 2969 
z
M 947 1747 
Q 947 1113 1208 752 
Q 1469 391 1925 391 
Q 2381 391 2643 752 
Q 2906 1113 2906 1747 
Q 2906 2381 2643 2742 
Q 2381 3103 1925 3103 
Q 1469 3103 1208 2742 
Q 947 2381 947 1747 
z
" transform="scale(0.015625)"/>
       <path id="DejaVuSans-66" d="M 2375 4863 
L 2375 4384 
L 1825 4384 
Q 1516 4384 1395 4259 
Q 1275 4134 1275 3809 
L 1275 3500 
L 2222 3500 
L 2222 3053 
L 1275 3053 
L 1275 0 
L 697 0 
L 697 3053 
L 147 3053 
L 147 3500 
L 697 3500 
L 697 3744 
Q 697 4328 969 4595 
Q 1241 4863 1831 4863 
L 2375 4863 
z
" transform="scale(0.015625)"/>
       <path id="DejaVuSans-63" d="M 3122 3366 
L 3122 2828 
Q 2878 2963 2633 3030 
Q 2388 3097 2138 3097 
Q 1578 3097 1268 2742 
Q 959 2388 959 1747 
Q 959 1106 1268 751 
Q 1578 397 2138 397 
Q 2388 397 2633 464 
Q 2878 531 3122 666 
L 3122 134 
Q 2881 22 2623 -34 
Q 2366 -91 2075 -91 
Q 1284 -91 818 406 
Q 353 903 353 1747 
Q 353 2603 823 3093 
Q 1294 3584 2113 3584 
Q 2378 3584 2631 3529 
Q 2884 3475 3122 3366 
z
" transform="scale(0.015625)"/>
       <path id="DejaVuSans-68" d="M 3513 2113 
L 3513 0 
L 2938 0 
L 2938 2094 
Q 2938 2591 2744 2837 
Q 2550 3084 2163 3084 
Q 1697 3084 1428 2787 
Q 1159 2491 1159 1978 
L 1159 0 
L 581 0 
L 581 4863 
L 1159 4863 
L 1159 2956 
Q 1366 3272 1645 3428 
Q 1925 3584 2291 3584 
Q 2894 3584 3203 3211 
Q 3513 2838 3513 2113 
z
" transform="scale(0.015625)"/>
       <path id="DejaVuSans-70" d="M 1159 525 
L 1159 -1331 
L 581 -1331 
L 581 3500 
L 1159 3500 
L 1159 2969 
Q 1341 3281 1617 3432 
Q 1894 3584 2278 3584 
Q 2916 3584 3314 3078 
Q 3713 2572 3713 1747 
Q 3713 922 3314 415 
Q 2916 -91 2278 -91 
Q 1894 -91 1617 61 
Q 1341 213 1159 525 
z
M 3116 1747 
Q 3116 2381 2855 2742 
Q 2594 3103 2138 3103 
Q 1681 3103 1420 2742 
Q 1159 2381 1159 1747 
Q 1159 1113 1420 752 
Q 1681 391 2138 391 
Q 2594 391 2855 752 
Q 3116 1113 3116 1747 
z
" transform="scale(0.015625)"/>
       <path id="DejaVuSans-76" d="M 191 3500 
L 800 3500 
L 1894 563 
L 2988 3500 
L 3597 3500 
L 2284 0 
L 1503 0 
L 191 3500 
z
" transform="scale(0.015625)"/>
       <path id="DejaVuSans-6c" d="M 603 4863 
L 1178 4863 
L 1178 0 
L 603 0 
L 603 4863 
z
" transform="scale(0.015625)"/>
       <path id="DejaVuSans-75" d="M 544 1381 
L 544 3500 
L 1119 3500 
L 1119 1403 
Q 1119 906 1312 657 
Q 1506 409 1894 409 
Q 2359 409 2629 706 
Q 2900 1003 2900 1516 
L 2900 3500 
L 3475 3500 
L 3475 0 
L 2900 0 
L 2900 538 
Q 2691 219 2414 64 
Q 2138 -91 1772 -91 
Q 1169 -91 856 284 
Q 544 659 544 1381 
z
M 1991 3584 
L 1991 3584 
z
" transform="scale(0.015625)"/>
       <path id="DejaVuSans-62" d="M 3116 1747 
Q 3116 2381 2855 2742 
Q 2594 3103 2138 3103 
Q 1681 3103 1420 2742 
Q 1159 2381 1159 1747 
Q 1159 1113 1420 752 
Q 1681 391 2138 391 
Q 2594 391 2855 752 
Q 3116 1113 3116 1747 
z
M 1159 2969 
Q 1341 3281 1617 3432 
Q 1894 3584 2278 3584 
Q 2916 3584 3314 3078 
Q 3713 2572 3713 1747 
Q 3713 922 3314 415 
Q 2916 -91 2278 -91 
Q 1894 -91 1617 61 
Q 1341 213 1159 525 
L 1159 0 
L 581 0 
L 581 4863 
L 1159 4863 
L 1159 2969 
z
" transform="scale(0.015625)"/>
       <path id="DejaVuSans-27" d="M 1147 4666 
L 1147 2931 
L 616 2931 
L 616 4666 
L 1147 4666 
z
" transform="scale(0.015625)"/>
       <path id="DejaVuSans-78" d="M 3513 3500 
L 2247 1797 
L 3578 0 
L 2900 0 
L 1881 1375 
L 863 0 
L 184 0 
L 1544 1831 
L 300 3500 
L 978 3500 
L 1906 2253 
L 2834 3500 
L 3513 3500 
z
" transform="scale(0.015625)"/>
      </defs>
      <use xlink:href="#DejaVuSans-4d"/>
      <use xlink:href="#DejaVuSans-65" x="86.279297"/>
      <use xlink:href="#DejaVuSans-61" x="147.802734"/>
      <use xlink:href="#DejaVuSans-6e" x="209.082031"/>
      <use xlink:href="#DejaVuSans-20" x="272.460938"/>
      <use xlink:href="#DejaVuSans-64" x="304.248047"/>
      <use xlink:href="#DejaVuSans-69" x="367.724609"/>
      <use xlink:href="#DejaVuSans-66" x="395.507812"/>
      <use xlink:href="#DejaVuSans-66" x="430.712891"/>
      <use xlink:href="#DejaVuSans-65" x="465.917969"/>
      <use xlink:href="#DejaVuSans-72" x="527.441406"/>
      <use xlink:href="#DejaVuSans-65" x="566.304688"/>
      <use xlink:href="#DejaVuSans-6e" x="627.828125"/>
      <use xlink:href="#DejaVuSans-63" x="691.207031"/>
      <use xlink:href="#DejaVuSans-65" x="746.1875"/>
      <use xlink:href="#DejaVuSans-20" x="807.710938"/>
      <use xlink:href="#DejaVuSans-69" x="839.498047"/>
      <use xlink:href="#DejaVuSans-6e" x="867.28125"/>
      <use xlink:href="#DejaVuSans-20" x="930.660156"/>
      <use xlink:href="#DejaVuSans-73" x="962.447266"/>
      <use xlink:href="#DejaVuSans-68" x="1014.546875"/>
      <use xlink:href="#DejaVuSans-61" x="1077.925781"/>
      <use xlink:href="#DejaVuSans-70" x="1139.205078"/>
      <use xlink:href="#DejaVuSans-20" x="1202.681641"/>
      <use xlink:href="#DejaVuSans-76" x="1234.46875"/>
      <use xlink:href="#DejaVuSans-61" x="1293.648438"/>
      <use xlink:href="#DejaVuSans-6c" x="1354.927734"/>
      <use xlink:href="#DejaVuSans-75" x="1382.710938"/>
      <use xlink:href="#DejaVuSans-65" x="1446.089844"/>
      <use xlink:href="#DejaVuSans-73" x="1507.613281"/>
      <use xlink:href="#DejaVuSans-20" x="1559.712891"/>
      <use xlink:href="#DejaVuSans-6f" x="1591.5"/>
      <use xlink:href="#DejaVuSans-66" x="1652.681641"/>
      <use xlink:href="#DejaVuSans-20" x="1687.886719"/>
      <use xlink:href="#DejaVuSans-70" x="1719.673828"/>
      <use xlink:href="#DejaVuSans-72" x="1783.150391"/>
      <use xlink:href="#DejaVuSans-6f" x="1822.013672"/>
      <use xlink:href="#DejaVuSans-74" x="1883.195312"/>
      <use xlink:href="#DejaVuSans-65" x="1922.404297"/>
      <use xlink:href="#DejaVuSans-63" x="1983.927734"/>
      <use xlink:href="#DejaVuSans-74" x="2038.908203"/>
      <use xlink:href="#DejaVuSans-65" x="2078.117188"/>
      <use xlink:href="#DejaVuSans-64" x="2139.640625"/>
      <use xlink:href="#DejaVuSans-20" x="2203.117188"/>
      <use xlink:href="#DejaVuSans-61" x="2234.904297"/>
      <use xlink:href="#DejaVuSans-74" x="2296.183594"/>
      <use xlink:href="#DejaVuSans-74" x="2335.392578"/>
      <use xlink:href="#DejaVuSans-72" x="2374.601562"/>
      <use xlink:href="#DejaVuSans-69" x="2415.714844"/>
      <use xlink:href="#DejaVuSans-62" x="2443.498047"/>
      <use xlink:href="#DejaVuSans-75" x="2506.974609"/>
      <use xlink:href="#DejaVuSans-74" x="2570.353516"/>
      <use xlink:href="#DejaVuSans-65" x="2609.5625"/>
      <use xlink:href="#DejaVuSans-20" x="2671.085938"/>
      <use xlink:href="#DejaVuSans-27" x="2702.873047"/>
      <use xlink:href="#DejaVuSans-73" x="2730.363281"/>
      <use xlink:href="#DejaVuSans-65" x="2782.462891"/>
      <use xlink:href="#DejaVuSans-78" x="2842.236328"/>
      <use xlink:href="#DejaVuSans-27" x="2901.416016"/>
     </g>
    </g>
   </g>
   <g id="line2d_12">
    <path d="M 61.1712 172.310821 
L 64.7424 178.343076 
L 68.3136 169.309271 
L 71.8848 194.90185 
L 75.456 176.13312 
L 79.0272 177.239756 
L 82.5984 168.955604 
L 86.1696 179.755399 
L 89.7408 173.138881 
L 93.312 182.396299 
L 96.8832 170.26002 
L 100.4544 168.848959 
L 104.0256 179.60068 
L 107.5968 174.02995 
L 111.168 185.123754 
L 114.7392 172.327389 
L 118.3104 172.659695 
L 121.8816 176.765452 
L 125.4528 171.327306 
L 129.024 178.604605 
L 132.5952 171.439494 
L 136.1664 180.44705 
L 139.7376 170.873026 
L 143.3088 170.246116 
L 146.88 173.474444 
L 150.4512 171.331998 
L 154.0224 173.48579 
L 157.5936 178.786326 
L 161.1648 175.446105 
L 164.736 172.617485 
L 168.3072 179.343698 
L 171.8784 176.283517 
L 175.4496 176.428101 
L 179.0208 175.810145 
L 182.592 172.620279 
L 186.1632 174.596313 
L 189.7344 177.085004 
L 193.3056 170.369445 
L 196.8768 175.425707 
L 200.448 177.298165 
L 204.0192 176.703088 
L 207.5904 171.3864 
L 211.1616 169.258213 
L 214.7328 187.951747 
L 218.304 173.75564 
L 221.8752 173.168552 
L 225.4464 175.96313 
L 229.0176 175.756444 
L 232.5888 167.454262 
L 236.16 173.864308 
L 239.7312 177.380825 
L 243.3024 168.293566 
L 246.8736 176.117561 
L 250.4448 173.970922 
L 254.016 176.975224 
L 257.5872 166.109965 
L 261.1584 173.423759 
L 264.7296 172.810334 
L 268.3008 176.752451 
L 271.872 186.765337 
L 275.4432 176.477933 
L 279.0144 173.341791 
L 282.5856 176.245636 
L 286.1568 172.685433 
L 289.728 174.995528 
L 293.2992 174.694892 
L 296.8704 171.410332 
L 300.4416 173.808362 
L 304.0128 173.805003 
L 307.584 176.114689 
L 311.1552 175.914228 
L 314.7264 170.693218 
L 318.2976 174.797969 
L 321.8688 177.247962 
L 325.44 174.388512 
L 329.0112 175.915385 
L 332.5824 174.464386 
L 336.1536 174.592123 
L 339.7248 187.826497 
L 343.296 171.183929 
L 346.8672 174.140018 
L 350.4384 173.414431 
L 354.0096 174.515283 
L 357.5808 179.628774 
L 361.152 173.574611 
L 364.7232 172.637155 
L 368.2944 177.43552 
L 371.8656 174.463888 
L 375.4368 176.090204 
L 379.008 175.260942 
L 382.5792 172.642504 
L 386.1504 175.220719 
L 389.7216 177.935902 
L 393.2928 172.173932 
L 396.864 176.204466 
L 400.4352 172.907482 
L 404.0064 173.920149 
L 407.5776 174.338044 
L 411.1488 175.87648 
" clip-path="url(#p8a42a6cf7a)" style="fill: none; stroke: #1f77b4; stroke-width: 1.5; stroke-linecap: square"/>
   </g>
   <g id="line2d_13">
    <path d="M 61.1712 183.970048 
L 64.7424 164.776649 
L 68.3136 177.994993 
L 71.8848 170.720069 
L 75.456 184.925245 
L 79.0272 163.660847 
L 82.5984 179.789378 
L 86.1696 180.211945 
L 89.7408 165.549471 
L 93.312 172.140461 
L 96.8832 176.991172 
L 100.4544 175.778395 
L 104.0256 183.871875 
L 107.5968 168.87207 
L 111.168 175.347604 
L 114.7392 172.518597 
L 118.3104 177.997116 
L 121.8816 159.174994 
L 125.4528 191.385101 
L 129.024 169.864806 
L 132.5952 180.014796 
L 136.1664 174.551867 
L 139.7376 175.1499 
L 143.3088 165.418011 
L 146.88 175.223771 
L 150.4512 175.79582 
L 154.0224 175.461547 
L 157.5936 176.963601 
L 161.1648 184.936283 
L 164.736 172.994211 
L 168.3072 169.203627 
L 171.8784 169.664278 
L 175.4496 187.151759 
L 179.0208 164.255634 
L 182.592 177.083665 
L 186.1632 165.085565 
L 189.7344 178.398864 
L 193.3056 190.707253 
L 196.8768 165.236143 
L 200.448 182.259576 
L 204.0192 172.041521 
L 207.5904 172.37376 
L 211.1616 177.243925 
L 214.7328 176.464414 
L 218.304 170.911134 
L 221.8752 175.878043 
L 225.4464 173.14649 
L 229.0176 173.438786 
L 232.5888 184.649092 
L 236.16 172.659234 
L 239.7312 168.758984 
L 243.3024 186.254326 
L 246.8736 179.251668 
L 250.4448 173.492285 
L 254.016 168.713864 
L 257.5872 173.966709 
L 261.1584 177.113304 
L 264.7296 175.678481 
L 268.3008 179.533763 
L 271.872 173.257671 
L 275.4432 174.039703 
L 279.0144 171.761507 
L 282.5856 182.232528 
L 286.1568 175.270638 
L 289.728 181.316536 
L 293.2992 166.564717 
L 296.8704 175.530721 
L 300.4416 168.543345 
L 304.0128 186.258683 
L 307.584 175.33936 
L 311.1552 173.495714 
L 314.7264 176.701553 
L 318.2976 177.655477 
L 321.8688 173.677084 
L 325.44 177.911005 
L 329.0112 171.084759 
L 332.5824 186.724122 
L 336.1536 170.813798 
L 339.7248 174.569499 
L 343.296 174.686043 
L 346.8672 182.063473 
L 350.4384 168.830393 
L 354.0096 177.001616 
L 357.5808 172.898361 
L 361.152 180.108728 
L 364.7232 181.224893 
L 368.2944 166.347049 
L 371.8656 177.064306 
L 375.4368 180.402273 
L 379.008 172.80768 
L 382.5792 172.253606 
L 386.1504 177.030452 
L 389.7216 178.28597 
L 393.2928 172.41344 
L 396.864 175.103689 
L 400.4352 176.269677 
L 404.0064 176.820003 
L 407.5776 169.013944 
L 411.1488 185.939058 
" clip-path="url(#p8a42a6cf7a)" style="fill: none; stroke: #ff7f0e; stroke-width: 1.5; stroke-linecap: square"/>
   </g>
   <g id="patch_3">
    <path d="M 57.6 307.584 
L 57.6 41.472 
" style="fill: none; stroke: #000000; stroke-width: 0.8; stroke-linejoin: miter; stroke-linecap: square"/>
   </g>
   <g id="patch_4">
    <path d="M 414.72 307.584 
L 414.72 41.472 
" style="fill: none; stroke: #000000; stroke-width: 0.8; stroke-linejoin: miter; stroke-linecap: square"/>
   </g>
   <g id="patch_5">
    <path d="M 57.6 307.584 
L 414.72 307.584 
" style="fill: none; stroke: #000000; stroke-width: 0.8; stroke-linejoin: miter; stroke-linecap: square"/>
   </g>
   <g id="patch_6">
    <path d="M 57.6 41.472 
L 414.72 41.472 
" style="fill: none; stroke: #000000; stroke-width: 0.8; stroke-linejoin: miter; stroke-linecap: square"/>
   </g>
  </g>
  <g id="legend_1">
   <g id="patch_7">
    <path d="M 206.91875 37.35625 
L 453.8 37.35625 
Q 455.8 37.35625 455.8 35.35625 
L 455.8 7 
Q 455.8 5 453.8 5 
L 206.91875 5 
Q 204.91875 5 204.91875 7 
L 204.91875 35.35625 
Q 204.91875 37.35625 206.91875 37.35625 
z
" style="fill: #ffffff; opacity: 0.8; stroke: #cccccc; stroke-linejoin: miter"/>
   </g>
   <g id="line2d_14">
    <path d="M 208.91875 13.098437 
L 218.91875 13.098437 
L 228.91875 13.098437 
" style="fill: none; stroke: #1f77b4; stroke-width: 1.5; stroke-linecap: square"/>
   </g>
   <g id="text_14">
    <!-- Mean difference in Shap values for L -->
    <g transform="translate(236.91875 16.598437) scale(0.1 -0.1)">
     <defs>
      <path id="DejaVuSans-53" d="M 3425 4513 
L 3425 3897 
Q 3066 4069 2747 4153 
Q 2428 4238 2131 4238 
Q 1616 4238 1336 4038 
Q 1056 3838 1056 3469 
Q 1056 3159 1242 3001 
Q 1428 2844 1947 2747 
L 2328 2669 
Q 3034 2534 3370 2195 
Q 3706 1856 3706 1288 
Q 3706 609 3251 259 
Q 2797 -91 1919 -91 
Q 1588 -91 1214 -16 
Q 841 59 441 206 
L 441 856 
Q 825 641 1194 531 
Q 1563 422 1919 422 
Q 2459 422 2753 634 
Q 3047 847 3047 1241 
Q 3047 1584 2836 1778 
Q 2625 1972 2144 2069 
L 1759 2144 
Q 1053 2284 737 2584 
Q 422 2884 422 3419 
Q 422 4038 858 4394 
Q 1294 4750 2059 4750 
Q 2388 4750 2728 4690 
Q 3069 4631 3425 4513 
z
" transform="scale(0.015625)"/>
      <path id="DejaVuSans-4c" d="M 628 4666 
L 1259 4666 
L 1259 531 
L 3531 531 
L 3531 0 
L 628 0 
L 628 4666 
z
" transform="scale(0.015625)"/>
     </defs>
     <use xlink:href="#DejaVuSans-4d"/>
     <use xlink:href="#DejaVuSans-65" x="86.279297"/>
     <use xlink:href="#DejaVuSans-61" x="147.802734"/>
     <use xlink:href="#DejaVuSans-6e" x="209.082031"/>
     <use xlink:href="#DejaVuSans-20" x="272.460938"/>
     <use xlink:href="#DejaVuSans-64" x="304.248047"/>
     <use xlink:href="#DejaVuSans-69" x="367.724609"/>
     <use xlink:href="#DejaVuSans-66" x="395.507812"/>
     <use xlink:href="#DejaVuSans-66" x="430.712891"/>
     <use xlink:href="#DejaVuSans-65" x="465.917969"/>
     <use xlink:href="#DejaVuSans-72" x="527.441406"/>
     <use xlink:href="#DejaVuSans-65" x="566.304688"/>
     <use xlink:href="#DejaVuSans-6e" x="627.828125"/>
     <use xlink:href="#DejaVuSans-63" x="691.207031"/>
     <use xlink:href="#DejaVuSans-65" x="746.1875"/>
     <use xlink:href="#DejaVuSans-20" x="807.710938"/>
     <use xlink:href="#DejaVuSans-69" x="839.498047"/>
     <use xlink:href="#DejaVuSans-6e" x="867.28125"/>
     <use xlink:href="#DejaVuSans-20" x="930.660156"/>
     <use xlink:href="#DejaVuSans-53" x="962.447266"/>
     <use xlink:href="#DejaVuSans-68" x="1025.923828"/>
     <use xlink:href="#DejaVuSans-61" x="1089.302734"/>
     <use xlink:href="#DejaVuSans-70" x="1150.582031"/>
     <use xlink:href="#DejaVuSans-20" x="1214.058594"/>
     <use xlink:href="#DejaVuSans-76" x="1245.845703"/>
     <use xlink:href="#DejaVuSans-61" x="1305.025391"/>
     <use xlink:href="#DejaVuSans-6c" x="1366.304688"/>
     <use xlink:href="#DejaVuSans-75" x="1394.087891"/>
     <use xlink:href="#DejaVuSans-65" x="1457.466797"/>
     <use xlink:href="#DejaVuSans-73" x="1518.990234"/>
     <use xlink:href="#DejaVuSans-20" x="1571.089844"/>
     <use xlink:href="#DejaVuSans-66" x="1602.876953"/>
     <use xlink:href="#DejaVuSans-6f" x="1638.082031"/>
     <use xlink:href="#DejaVuSans-72" x="1699.263672"/>
     <use xlink:href="#DejaVuSans-20" x="1740.376953"/>
     <use xlink:href="#DejaVuSans-4c" x="1772.164062"/>
    </g>
   </g>
   <g id="line2d_15">
    <path d="M 208.91875 27.776563 
L 218.91875 27.776563 
L 228.91875 27.776563 
" style="fill: none; stroke: #ff7f0e; stroke-width: 1.5; stroke-linecap: square"/>
   </g>
   <g id="text_15">
    <!-- Mean difference in Shap values for test set -->
    <g transform="translate(236.91875 31.276563) scale(0.1 -0.1)">
     <use xlink:href="#DejaVuSans-4d"/>
     <use xlink:href="#DejaVuSans-65" x="86.279297"/>
     <use xlink:href="#DejaVuSans-61" x="147.802734"/>
     <use xlink:href="#DejaVuSans-6e" x="209.082031"/>
     <use xlink:href="#DejaVuSans-20" x="272.460938"/>
     <use xlink:href="#DejaVuSans-64" x="304.248047"/>
     <use xlink:href="#DejaVuSans-69" x="367.724609"/>
     <use xlink:href="#DejaVuSans-66" x="395.507812"/>
     <use xlink:href="#DejaVuSans-66" x="430.712891"/>
     <use xlink:href="#DejaVuSans-65" x="465.917969"/>
     <use xlink:href="#DejaVuSans-72" x="527.441406"/>
     <use xlink:href="#DejaVuSans-65" x="566.304688"/>
     <use xlink:href="#DejaVuSans-6e" x="627.828125"/>
     <use xlink:href="#DejaVuSans-63" x="691.207031"/>
     <use xlink:href="#DejaVuSans-65" x="746.1875"/>
     <use xlink:href="#DejaVuSans-20" x="807.710938"/>
     <use xlink:href="#DejaVuSans-69" x="839.498047"/>
     <use xlink:href="#DejaVuSans-6e" x="867.28125"/>
     <use xlink:href="#DejaVuSans-20" x="930.660156"/>
     <use xlink:href="#DejaVuSans-53" x="962.447266"/>
     <use xlink:href="#DejaVuSans-68" x="1025.923828"/>
     <use xlink:href="#DejaVuSans-61" x="1089.302734"/>
     <use xlink:href="#DejaVuSans-70" x="1150.582031"/>
     <use xlink:href="#DejaVuSans-20" x="1214.058594"/>
     <use xlink:href="#DejaVuSans-76" x="1245.845703"/>
     <use xlink:href="#DejaVuSans-61" x="1305.025391"/>
     <use xlink:href="#DejaVuSans-6c" x="1366.304688"/>
     <use xlink:href="#DejaVuSans-75" x="1394.087891"/>
     <use xlink:href="#DejaVuSans-65" x="1457.466797"/>
     <use xlink:href="#DejaVuSans-73" x="1518.990234"/>
     <use xlink:href="#DejaVuSans-20" x="1571.089844"/>
     <use xlink:href="#DejaVuSans-66" x="1602.876953"/>
     <use xlink:href="#DejaVuSans-6f" x="1638.082031"/>
     <use xlink:href="#DejaVuSans-72" x="1699.263672"/>
     <use xlink:href="#DejaVuSans-20" x="1740.376953"/>
     <use xlink:href="#DejaVuSans-74" x="1772.164062"/>
     <use xlink:href="#DejaVuSans-65" x="1811.373047"/>
     <use xlink:href="#DejaVuSans-73" x="1872.896484"/>
     <use xlink:href="#DejaVuSans-74" x="1924.996094"/>
     <use xlink:href="#DejaVuSans-20" x="1964.205078"/>
     <use xlink:href="#DejaVuSans-73" x="1995.992188"/>
     <use xlink:href="#DejaVuSans-65" x="2048.091797"/>
     <use xlink:href="#DejaVuSans-74" x="2109.615234"/>
    </g>
   </g>
  </g>
 </g>
 <defs>
  <clipPath id="p8a42a6cf7a">
   <rect x="57.6" y="41.472" width="357.12" height="266.112"/>
  </clipPath>
 </defs>
</svg>
