<?xml version="1.0" encoding="utf-8" standalone="no"?>
<!DOCTYPE svg PUBLIC "-//W3C//DTD SVG 1.1//EN"
  "http://www.w3.org/Graphics/SVG/1.1/DTD/svg11.dtd">
<svg xmlns:xlink="http://www.w3.org/1999/xlink" width="460.8pt" height="345.6pt" viewBox="0 0 460.8 345.6" xmlns="http://www.w3.org/2000/svg" version="1.1">
 <metadata>
  <rdf:RDF xmlns:dc="http://purl.org/dc/elements/1.1/" xmlns:cc="http://creativecommons.org/ns#" xmlns:rdf="http://www.w3.org/1999/02/22-rdf-syntax-ns#">
   <cc:Work>
    <dc:type rdf:resource="http://purl.org/dc/dcmitype/StillImage"/>
    <dc:date>2022-09-15T14:48:03.256281</dc:date>
    <dc:format>image/svg+xml</dc:format>
    <dc:creator>
     <cc:Agent>
      <dc:title>Matplotlib v3.5.1, https://matplotlib.org/</dc:title>
     </cc:Agent>
    </dc:creator>
   </cc:Work>
  </rdf:RDF>
 </metadata>
 <defs>
  <style type="text/css">*{stroke-linejoin: round; stroke-linecap: butt}</style>
 </defs>
 <g id="figure_1">
  <g id="patch_1">
   <path d="M 0 345.6 
L 460.8 345.6 
L 460.8 0 
L 0 0 
z
" style="fill: #ffffff"/>
  </g>
  <g id="axes_1">
   <g id="patch_2">
    <path d="M 57.6 307.584 
L 414.72 307.584 
L 414.72 41.472 
L 57.6 41.472 
z
" style="fill: #ffffff"/>
   </g>
   <g id="matplotlib.axis_1">
    <g id="xtick_1">
     <g id="line2d_1">
      <defs>
       <path id="m142c4d8eb7" d="M 0 0 
L 0 3.5 
" style="stroke: #000000; stroke-width: 0.8"/>
      </defs>
      <g>
       <use xlink:href="#m142c4d8eb7" x="57.6" y="307.584" style="stroke: #000000; stroke-width: 0.8"/>
      </g>
     </g>
     <g id="text_1">
      <!-- 0 -->
      <g transform="translate(54.41875 322.182437)scale(0.1 -0.1)">
       <defs>
        <path id="DejaVuSans-30" d="M 2034 4250 
Q 1547 4250 1301 3770 
Q 1056 3291 1056 2328 
Q 1056 1369 1301 889 
Q 1547 409 2034 409 
Q 2525 409 2770 889 
Q 3016 1369 3016 2328 
Q 3016 3291 2770 3770 
Q 2525 4250 2034 4250 
z
M 2034 4750 
Q 2819 4750 3233 4129 
Q 3647 3509 3647 2328 
Q 3647 1150 3233 529 
Q 2819 -91 2034 -91 
Q 1250 -91 836 529 
Q 422 1150 422 2328 
Q 422 3509 836 4129 
Q 1250 4750 2034 4750 
z
" transform="scale(0.015625)"/>
       </defs>
       <use xlink:href="#DejaVuSans-30"/>
      </g>
     </g>
    </g>
    <g id="xtick_2">
     <g id="line2d_2">
      <g>
       <use xlink:href="#m142c4d8eb7" x="129.024" y="307.584" style="stroke: #000000; stroke-width: 0.8"/>
      </g>
     </g>
     <g id="text_2">
      <!-- 20 -->
      <g transform="translate(122.6615 322.182437)scale(0.1 -0.1)">
       <defs>
        <path id="DejaVuSans-32" d="M 1228 531 
L 3431 531 
L 3431 0 
L 469 0 
L 469 531 
Q 828 903 1448 1529 
Q 2069 2156 2228 2338 
Q 2531 2678 2651 2914 
Q 2772 3150 2772 3378 
Q 2772 3750 2511 3984 
Q 2250 4219 1831 4219 
Q 1534 4219 1204 4116 
Q 875 4013 500 3803 
L 500 4441 
Q 881 4594 1212 4672 
Q 1544 4750 1819 4750 
Q 2544 4750 2975 4387 
Q 3406 4025 3406 3419 
Q 3406 3131 3298 2873 
Q 3191 2616 2906 2266 
Q 2828 2175 2409 1742 
Q 1991 1309 1228 531 
z
" transform="scale(0.015625)"/>
       </defs>
       <use xlink:href="#DejaVuSans-32"/>
       <use xlink:href="#DejaVuSans-30" x="63.623047"/>
      </g>
     </g>
    </g>
    <g id="xtick_3">
     <g id="line2d_3">
      <g>
       <use xlink:href="#m142c4d8eb7" x="200.448" y="307.584" style="stroke: #000000; stroke-width: 0.8"/>
      </g>
     </g>
     <g id="text_3">
      <!-- 40 -->
      <g transform="translate(194.0855 322.182437)scale(0.1 -0.1)">
       <defs>
        <path id="DejaVuSans-34" d="M 2419 4116 
L 825 1625 
L 2419 1625 
L 2419 4116 
z
M 2253 4666 
L 3047 4666 
L 3047 1625 
L 3713 1625 
L 3713 1100 
L 3047 1100 
L 3047 0 
L 2419 0 
L 2419 1100 
L 313 1100 
L 313 1709 
L 2253 4666 
z
" transform="scale(0.015625)"/>
       </defs>
       <use xlink:href="#DejaVuSans-34"/>
       <use xlink:href="#DejaVuSans-30" x="63.623047"/>
      </g>
     </g>
    </g>
    <g id="xtick_4">
     <g id="line2d_4">
      <g>
       <use xlink:href="#m142c4d8eb7" x="271.872" y="307.584" style="stroke: #000000; stroke-width: 0.8"/>
      </g>
     </g>
     <g id="text_4">
      <!-- 60 -->
      <g transform="translate(265.5095 322.182437)scale(0.1 -0.1)">
       <defs>
        <path id="DejaVuSans-36" d="M 2113 2584 
Q 1688 2584 1439 2293 
Q 1191 2003 1191 1497 
Q 1191 994 1439 701 
Q 1688 409 2113 409 
Q 2538 409 2786 701 
Q 3034 994 3034 1497 
Q 3034 2003 2786 2293 
Q 2538 2584 2113 2584 
z
M 3366 4563 
L 3366 3988 
Q 3128 4100 2886 4159 
Q 2644 4219 2406 4219 
Q 1781 4219 1451 3797 
Q 1122 3375 1075 2522 
Q 1259 2794 1537 2939 
Q 1816 3084 2150 3084 
Q 2853 3084 3261 2657 
Q 3669 2231 3669 1497 
Q 3669 778 3244 343 
Q 2819 -91 2113 -91 
Q 1303 -91 875 529 
Q 447 1150 447 2328 
Q 447 3434 972 4092 
Q 1497 4750 2381 4750 
Q 2619 4750 2861 4703 
Q 3103 4656 3366 4563 
z
" transform="scale(0.015625)"/>
       </defs>
       <use xlink:href="#DejaVuSans-36"/>
       <use xlink:href="#DejaVuSans-30" x="63.623047"/>
      </g>
     </g>
    </g>
    <g id="xtick_5">
     <g id="line2d_5">
      <g>
       <use xlink:href="#m142c4d8eb7" x="343.296" y="307.584" style="stroke: #000000; stroke-width: 0.8"/>
      </g>
     </g>
     <g id="text_5">
      <!-- 80 -->
      <g transform="translate(336.9335 322.182437)scale(0.1 -0.1)">
       <defs>
        <path id="DejaVuSans-38" d="M 2034 2216 
Q 1584 2216 1326 1975 
Q 1069 1734 1069 1313 
Q 1069 891 1326 650 
Q 1584 409 2034 409 
Q 2484 409 2743 651 
Q 3003 894 3003 1313 
Q 3003 1734 2745 1975 
Q 2488 2216 2034 2216 
z
M 1403 2484 
Q 997 2584 770 2862 
Q 544 3141 544 3541 
Q 544 4100 942 4425 
Q 1341 4750 2034 4750 
Q 2731 4750 3128 4425 
Q 3525 4100 3525 3541 
Q 3525 3141 3298 2862 
Q 3072 2584 2669 2484 
Q 3125 2378 3379 2068 
Q 3634 1759 3634 1313 
Q 3634 634 3220 271 
Q 2806 -91 2034 -91 
Q 1263 -91 848 271 
Q 434 634 434 1313 
Q 434 1759 690 2068 
Q 947 2378 1403 2484 
z
M 1172 3481 
Q 1172 3119 1398 2916 
Q 1625 2713 2034 2713 
Q 2441 2713 2670 2916 
Q 2900 3119 2900 3481 
Q 2900 3844 2670 4047 
Q 2441 4250 2034 4250 
Q 1625 4250 1398 4047 
Q 1172 3844 1172 3481 
z
" transform="scale(0.015625)"/>
       </defs>
       <use xlink:href="#DejaVuSans-38"/>
       <use xlink:href="#DejaVuSans-30" x="63.623047"/>
      </g>
     </g>
    </g>
    <g id="xtick_6">
     <g id="line2d_6">
      <g>
       <use xlink:href="#m142c4d8eb7" x="414.72" y="307.584" style="stroke: #000000; stroke-width: 0.8"/>
      </g>
     </g>
     <g id="text_6">
      <!-- 100 -->
      <g transform="translate(405.17625 322.182437)scale(0.1 -0.1)">
       <defs>
        <path id="DejaVuSans-31" d="M 794 531 
L 1825 531 
L 1825 4091 
L 703 3866 
L 703 4441 
L 1819 4666 
L 2450 4666 
L 2450 531 
L 3481 531 
L 3481 0 
L 794 0 
L 794 531 
z
" transform="scale(0.015625)"/>
       </defs>
       <use xlink:href="#DejaVuSans-31"/>
       <use xlink:href="#DejaVuSans-30" x="63.623047"/>
       <use xlink:href="#DejaVuSans-30" x="127.246094"/>
      </g>
     </g>
    </g>
    <g id="text_7">
     <!-- Iterations -->
     <g transform="translate(212.346719 335.860562)scale(0.1 -0.1)">
      <defs>
       <path id="DejaVuSans-49" d="M 628 4666 
L 1259 4666 
L 1259 0 
L 628 0 
L 628 4666 
z
" transform="scale(0.015625)"/>
       <path id="DejaVuSans-74" d="M 1172 4494 
L 1172 3500 
L 2356 3500 
L 2356 3053 
L 1172 3053 
L 1172 1153 
Q 1172 725 1289 603 
Q 1406 481 1766 481 
L 2356 481 
L 2356 0 
L 1766 0 
Q 1100 0 847 248 
Q 594 497 594 1153 
L 594 3053 
L 172 3053 
L 172 3500 
L 594 3500 
L 594 4494 
L 1172 4494 
z
" transform="scale(0.015625)"/>
       <path id="DejaVuSans-65" d="M 3597 1894 
L 3597 1613 
L 953 1613 
Q 991 1019 1311 708 
Q 1631 397 2203 397 
Q 2534 397 2845 478 
Q 3156 559 3463 722 
L 3463 178 
Q 3153 47 2828 -22 
Q 2503 -91 2169 -91 
Q 1331 -91 842 396 
Q 353 884 353 1716 
Q 353 2575 817 3079 
Q 1281 3584 2069 3584 
Q 2775 3584 3186 3129 
Q 3597 2675 3597 1894 
z
M 3022 2063 
Q 3016 2534 2758 2815 
Q 2500 3097 2075 3097 
Q 1594 3097 1305 2825 
Q 1016 2553 972 2059 
L 3022 2063 
z
" transform="scale(0.015625)"/>
       <path id="DejaVuSans-72" d="M 2631 2963 
Q 2534 3019 2420 3045 
Q 2306 3072 2169 3072 
Q 1681 3072 1420 2755 
Q 1159 2438 1159 1844 
L 1159 0 
L 581 0 
L 581 3500 
L 1159 3500 
L 1159 2956 
Q 1341 3275 1631 3429 
Q 1922 3584 2338 3584 
Q 2397 3584 2469 3576 
Q 2541 3569 2628 3553 
L 2631 2963 
z
" transform="scale(0.015625)"/>
       <path id="DejaVuSans-61" d="M 2194 1759 
Q 1497 1759 1228 1600 
Q 959 1441 959 1056 
Q 959 750 1161 570 
Q 1363 391 1709 391 
Q 2188 391 2477 730 
Q 2766 1069 2766 1631 
L 2766 1759 
L 2194 1759 
z
M 3341 1997 
L 3341 0 
L 2766 0 
L 2766 531 
Q 2569 213 2275 61 
Q 1981 -91 1556 -91 
Q 1019 -91 701 211 
Q 384 513 384 1019 
Q 384 1609 779 1909 
Q 1175 2209 1959 2209 
L 2766 2209 
L 2766 2266 
Q 2766 2663 2505 2880 
Q 2244 3097 1772 3097 
Q 1472 3097 1187 3025 
Q 903 2953 641 2809 
L 641 3341 
Q 956 3463 1253 3523 
Q 1550 3584 1831 3584 
Q 2591 3584 2966 3190 
Q 3341 2797 3341 1997 
z
" transform="scale(0.015625)"/>
       <path id="DejaVuSans-69" d="M 603 3500 
L 1178 3500 
L 1178 0 
L 603 0 
L 603 3500 
z
M 603 4863 
L 1178 4863 
L 1178 4134 
L 603 4134 
L 603 4863 
z
" transform="scale(0.015625)"/>
       <path id="DejaVuSans-6f" d="M 1959 3097 
Q 1497 3097 1228 2736 
Q 959 2375 959 1747 
Q 959 1119 1226 758 
Q 1494 397 1959 397 
Q 2419 397 2687 759 
Q 2956 1122 2956 1747 
Q 2956 2369 2687 2733 
Q 2419 3097 1959 3097 
z
M 1959 3584 
Q 2709 3584 3137 3096 
Q 3566 2609 3566 1747 
Q 3566 888 3137 398 
Q 2709 -91 1959 -91 
Q 1206 -91 779 398 
Q 353 888 353 1747 
Q 353 2609 779 3096 
Q 1206 3584 1959 3584 
z
" transform="scale(0.015625)"/>
       <path id="DejaVuSans-6e" d="M 3513 2113 
L 3513 0 
L 2938 0 
L 2938 2094 
Q 2938 2591 2744 2837 
Q 2550 3084 2163 3084 
Q 1697 3084 1428 2787 
Q 1159 2491 1159 1978 
L 1159 0 
L 581 0 
L 581 3500 
L 1159 3500 
L 1159 2956 
Q 1366 3272 1645 3428 
Q 1925 3584 2291 3584 
Q 2894 3584 3203 3211 
Q 3513 2838 3513 2113 
z
" transform="scale(0.015625)"/>
       <path id="DejaVuSans-73" d="M 2834 3397 
L 2834 2853 
Q 2591 2978 2328 3040 
Q 2066 3103 1784 3103 
Q 1356 3103 1142 2972 
Q 928 2841 928 2578 
Q 928 2378 1081 2264 
Q 1234 2150 1697 2047 
L 1894 2003 
Q 2506 1872 2764 1633 
Q 3022 1394 3022 966 
Q 3022 478 2636 193 
Q 2250 -91 1575 -91 
Q 1294 -91 989 -36 
Q 684 19 347 128 
L 347 722 
Q 666 556 975 473 
Q 1284 391 1588 391 
Q 1994 391 2212 530 
Q 2431 669 2431 922 
Q 2431 1156 2273 1281 
Q 2116 1406 1581 1522 
L 1381 1569 
Q 847 1681 609 1914 
Q 372 2147 372 2553 
Q 372 3047 722 3315 
Q 1072 3584 1716 3584 
Q 2034 3584 2315 3537 
Q 2597 3491 2834 3397 
z
" transform="scale(0.015625)"/>
      </defs>
      <use xlink:href="#DejaVuSans-49"/>
      <use xlink:href="#DejaVuSans-74" x="29.492188"/>
      <use xlink:href="#DejaVuSans-65" x="68.701172"/>
      <use xlink:href="#DejaVuSans-72" x="130.224609"/>
      <use xlink:href="#DejaVuSans-61" x="171.337891"/>
      <use xlink:href="#DejaVuSans-74" x="232.617188"/>
      <use xlink:href="#DejaVuSans-69" x="271.826172"/>
      <use xlink:href="#DejaVuSans-6f" x="299.609375"/>
      <use xlink:href="#DejaVuSans-6e" x="360.791016"/>
      <use xlink:href="#DejaVuSans-73" x="424.169922"/>
     </g>
    </g>
   </g>
   <g id="matplotlib.axis_2">
    <g id="ytick_1">
     <g id="line2d_7">
      <defs>
       <path id="m1077cf1d35" d="M 0 0 
L -3.5 0 
" style="stroke: #000000; stroke-width: 0.8"/>
      </defs>
      <g>
       <use xlink:href="#m1077cf1d35" x="57.6" y="307.584" style="stroke: #000000; stroke-width: 0.8"/>
      </g>
     </g>
     <g id="text_8">
      <!-- 0 -->
      <g transform="translate(44.2375 311.383219)scale(0.1 -0.1)">
       <use xlink:href="#DejaVuSans-30"/>
      </g>
     </g>
    </g>
    <g id="ytick_2">
     <g id="line2d_8">
      <g>
       <use xlink:href="#m1077cf1d35" x="57.6" y="263.232" style="stroke: #000000; stroke-width: 0.8"/>
      </g>
     </g>
     <g id="text_9">
      <!-- 100 -->
      <g transform="translate(31.5125 267.031219)scale(0.1 -0.1)">
       <use xlink:href="#DejaVuSans-31"/>
       <use xlink:href="#DejaVuSans-30" x="63.623047"/>
       <use xlink:href="#DejaVuSans-30" x="127.246094"/>
      </g>
     </g>
    </g>
    <g id="ytick_3">
     <g id="line2d_9">
      <g>
       <use xlink:href="#m1077cf1d35" x="57.6" y="218.88" style="stroke: #000000; stroke-width: 0.8"/>
      </g>
     </g>
     <g id="text_10">
      <!-- 200 -->
      <g transform="translate(31.5125 222.679219)scale(0.1 -0.1)">
       <use xlink:href="#DejaVuSans-32"/>
       <use xlink:href="#DejaVuSans-30" x="63.623047"/>
       <use xlink:href="#DejaVuSans-30" x="127.246094"/>
      </g>
     </g>
    </g>
    <g id="ytick_4">
     <g id="line2d_10">
      <g>
       <use xlink:href="#m1077cf1d35" x="57.6" y="174.528" style="stroke: #000000; stroke-width: 0.8"/>
      </g>
     </g>
     <g id="text_11">
      <!-- 300 -->
      <g transform="translate(31.5125 178.327219)scale(0.1 -0.1)">
       <defs>
        <path id="DejaVuSans-33" d="M 2597 2516 
Q 3050 2419 3304 2112 
Q 3559 1806 3559 1356 
Q 3559 666 3084 287 
Q 2609 -91 1734 -91 
Q 1441 -91 1130 -33 
Q 819 25 488 141 
L 488 750 
Q 750 597 1062 519 
Q 1375 441 1716 441 
Q 2309 441 2620 675 
Q 2931 909 2931 1356 
Q 2931 1769 2642 2001 
Q 2353 2234 1838 2234 
L 1294 2234 
L 1294 2753 
L 1863 2753 
Q 2328 2753 2575 2939 
Q 2822 3125 2822 3475 
Q 2822 3834 2567 4026 
Q 2313 4219 1838 4219 
Q 1578 4219 1281 4162 
Q 984 4106 628 3988 
L 628 4550 
Q 988 4650 1302 4700 
Q 1616 4750 1894 4750 
Q 2613 4750 3031 4423 
Q 3450 4097 3450 3541 
Q 3450 3153 3228 2886 
Q 3006 2619 2597 2516 
z
" transform="scale(0.015625)"/>
       </defs>
       <use xlink:href="#DejaVuSans-33"/>
       <use xlink:href="#DejaVuSans-30" x="63.623047"/>
       <use xlink:href="#DejaVuSans-30" x="127.246094"/>
      </g>
     </g>
    </g>
    <g id="ytick_5">
     <g id="line2d_11">
      <g>
       <use xlink:href="#m1077cf1d35" x="57.6" y="130.176" style="stroke: #000000; stroke-width: 0.8"/>
      </g>
     </g>
     <g id="text_12">
      <!-- 400 -->
      <g transform="translate(31.5125 133.975219)scale(0.1 -0.1)">
       <use xlink:href="#DejaVuSans-34"/>
       <use xlink:href="#DejaVuSans-30" x="63.623047"/>
       <use xlink:href="#DejaVuSans-30" x="127.246094"/>
      </g>
     </g>
    </g>
    <g id="ytick_6">
     <g id="line2d_12">
      <g>
       <use xlink:href="#m1077cf1d35" x="57.6" y="85.824" style="stroke: #000000; stroke-width: 0.8"/>
      </g>
     </g>
     <g id="text_13">
      <!-- 500 -->
      <g transform="translate(31.5125 89.623219)scale(0.1 -0.1)">
       <defs>
        <path id="DejaVuSans-35" d="M 691 4666 
L 3169 4666 
L 3169 4134 
L 1269 4134 
L 1269 2991 
Q 1406 3038 1543 3061 
Q 1681 3084 1819 3084 
Q 2600 3084 3056 2656 
Q 3513 2228 3513 1497 
Q 3513 744 3044 326 
Q 2575 -91 1722 -91 
Q 1428 -91 1123 -41 
Q 819 9 494 109 
L 494 744 
Q 775 591 1075 516 
Q 1375 441 1709 441 
Q 2250 441 2565 725 
Q 2881 1009 2881 1497 
Q 2881 1984 2565 2268 
Q 2250 2553 1709 2553 
Q 1456 2553 1204 2497 
Q 953 2441 691 2322 
L 691 4666 
z
" transform="scale(0.015625)"/>
       </defs>
       <use xlink:href="#DejaVuSans-35"/>
       <use xlink:href="#DejaVuSans-30" x="63.623047"/>
       <use xlink:href="#DejaVuSans-30" x="127.246094"/>
      </g>
     </g>
    </g>
    <g id="ytick_7">
     <g id="line2d_13">
      <g>
       <use xlink:href="#m1077cf1d35" x="57.6" y="41.472" style="stroke: #000000; stroke-width: 0.8"/>
      </g>
     </g>
     <g id="text_14">
      <!-- 600 -->
      <g transform="translate(31.5125 45.271219)scale(0.1 -0.1)">
       <use xlink:href="#DejaVuSans-36"/>
       <use xlink:href="#DejaVuSans-30" x="63.623047"/>
       <use xlink:href="#DejaVuSans-30" x="127.246094"/>
      </g>
     </g>
    </g>
    <g id="text_15">
     <!-- Counts -->
     <g transform="translate(25.432812 191.981125)rotate(-90)scale(0.1 -0.1)">
      <defs>
       <path id="DejaVuSans-43" d="M 4122 4306 
L 4122 3641 
Q 3803 3938 3442 4084 
Q 3081 4231 2675 4231 
Q 1875 4231 1450 3742 
Q 1025 3253 1025 2328 
Q 1025 1406 1450 917 
Q 1875 428 2675 428 
Q 3081 428 3442 575 
Q 3803 722 4122 1019 
L 4122 359 
Q 3791 134 3420 21 
Q 3050 -91 2638 -91 
Q 1578 -91 968 557 
Q 359 1206 359 2328 
Q 359 3453 968 4101 
Q 1578 4750 2638 4750 
Q 3056 4750 3426 4639 
Q 3797 4528 4122 4306 
z
" transform="scale(0.015625)"/>
       <path id="DejaVuSans-75" d="M 544 1381 
L 544 3500 
L 1119 3500 
L 1119 1403 
Q 1119 906 1312 657 
Q 1506 409 1894 409 
Q 2359 409 2629 706 
Q 2900 1003 2900 1516 
L 2900 3500 
L 3475 3500 
L 3475 0 
L 2900 0 
L 2900 538 
Q 2691 219 2414 64 
Q 2138 -91 1772 -91 
Q 1169 -91 856 284 
Q 544 659 544 1381 
z
M 1991 3584 
L 1991 3584 
z
" transform="scale(0.015625)"/>
      </defs>
      <use xlink:href="#DejaVuSans-43"/>
      <use xlink:href="#DejaVuSans-6f" x="69.824219"/>
      <use xlink:href="#DejaVuSans-75" x="131.005859"/>
      <use xlink:href="#DejaVuSans-6e" x="194.384766"/>
      <use xlink:href="#DejaVuSans-74" x="257.763672"/>
      <use xlink:href="#DejaVuSans-73" x="296.972656"/>
     </g>
    </g>
   </g>
   <g id="line2d_14">
    <path d="M 61.1712 178.9632 
L 64.7424 172.75392 
L 68.3136 191.38176 
L 71.8848 192.71232 
L 75.456 194.4864 
L 79.0272 198.47808 
L 82.5984 191.38176 
L 86.1696 202.46976 
L 89.7408 219.32352 
L 93.312 200.69568 
L 96.8832 198.03456 
L 100.4544 207.34848 
L 104.0256 202.46976 
L 107.5968 212.67072 
L 111.168 200.69568 
L 114.7392 203.3568 
L 118.3104 220.21056 
L 121.8816 214.88832 
L 125.4528 186.05952 
L 129.024 202.46976 
L 132.5952 204.24384 
L 136.1664 204.68736 
L 139.7376 206.01792 
L 143.3088 214.00128 
L 146.88 204.68736 
L 150.4512 222.42816 
L 154.0224 215.77536 
L 157.5936 217.10592 
L 161.1648 205.5744 
L 164.736 211.34016 
L 168.3072 222.42816 
L 171.8784 221.54112 
L 175.4496 201.1392 
L 179.0208 223.75872 
L 182.592 229.968 
L 186.1632 200.69568 
L 189.7344 210.45312 
L 193.3056 206.90496 
L 196.8768 198.47808 
L 200.448 209.12256 
L 204.0192 216.6624 
L 207.5904 217.54944 
L 211.1616 210.45312 
L 214.7328 223.75872 
L 218.304 214.00128 
L 221.8752 222.42816 
L 225.4464 231.74208 
L 229.0176 228.63744 
L 232.5888 238.39488 
L 236.16 238.8384 
L 239.7312 247.26528 
L 243.3024 250.36992 
L 246.8736 249.48288 
L 250.4448 249.48288 
L 254.016 240.16896 
L 257.5872 246.82176 
L 261.1584 233.07264 
L 264.7296 242.38656 
L 268.3008 240.61248 
L 271.872 225.08928 
L 275.4432 235.29024 
L 279.0144 233.95968 
L 282.5856 231.74208 
L 286.1568 239.72544 
L 289.728 216.21888 
L 293.2992 231.74208 
L 296.8704 241.056 
L 300.4416 230.85504 
L 304.0128 241.49952 
L 307.584 233.07264 
L 311.1552 249.48288 
L 314.7264 246.37824 
L 318.2976 255.24864 
L 321.8688 263.232 
L 325.44 254.3616 
L 329.0112 251.25696 
L 332.5824 249.9264 
L 336.1536 253.03104 
L 339.7248 238.8384 
L 343.296 243.71712 
L 346.8672 246.37824 
L 350.4384 247.26528 
L 354.0096 241.49952 
L 357.5808 251.25696 
L 361.152 253.03104 
L 364.7232 243.71712 
L 368.2944 253.47456 
L 371.8656 251.70048 
L 375.4368 248.59584 
L 379.008 252.144 
L 382.5792 269.44128 
L 386.1504 246.82176 
L 389.7216 259.68384 
L 393.2928 238.39488 
L 396.864 228.19392 
L 400.4352 248.59584 
L 404.0064 242.38656 
L 407.5776 235.29024 
L 411.1488 252.144 
" clip-path="url(#p49efff7b4b)" style="fill: none; stroke: #1f77b4; stroke-width: 1.5; stroke-linecap: square"/>
   </g>
   <g id="line2d_15">
    <path d="M 61.1712 247.26528 
L 64.7424 241.056 
L 68.3136 246.37824 
L 71.8848 245.93472 
L 75.456 253.47456 
L 79.0272 248.59584 
L 82.5984 252.58752 
L 86.1696 256.5792 
L 89.7408 261.45792 
L 93.312 249.9264 
L 96.8832 250.81344 
L 100.4544 258.7968 
L 104.0256 257.90976 
L 107.5968 254.80512 
L 111.168 254.80512 
L 114.7392 251.70048 
L 118.3104 267.6672 
L 121.8816 264.56256 
L 125.4528 258.7968 
L 129.024 255.69216 
L 132.5952 257.46624 
L 136.1664 256.13568 
L 139.7376 266.78016 
L 143.3088 263.67552 
L 146.88 262.78848 
L 150.4512 269.8848 
L 154.0224 265.89312 
L 157.5936 273.87648 
L 161.1648 258.35328 
L 164.736 256.5792 
L 168.3072 272.1024 
L 171.8784 271.21536 
L 175.4496 253.91808 
L 179.0208 265.89312 
L 182.592 276.5376 
L 186.1632 257.02272 
L 189.7344 261.90144 
L 193.3056 258.7968 
L 196.8768 247.7088 
L 200.448 257.46624 
L 204.0192 254.3616 
L 207.5904 259.24032 
L 211.1616 250.36992 
L 214.7328 268.11072 
L 218.304 254.3616 
L 221.8752 266.78016 
L 225.4464 271.65888 
L 229.0176 260.12736 
L 232.5888 275.65056 
L 236.16 267.22368 
L 239.7312 272.54592 
L 243.3024 276.98112 
L 246.8736 272.54592 
L 250.4448 277.86816 
L 254.016 269.8848 
L 257.5872 275.65056 
L 261.1584 268.11072 
L 264.7296 272.98944 
L 268.3008 271.65888 
L 271.872 270.77184 
L 275.4432 267.22368 
L 279.0144 272.54592 
L 282.5856 265.89312 
L 286.1568 273.43296 
L 289.728 251.25696 
L 293.2992 265.89312 
L 296.8704 270.32832 
L 300.4416 269.44128 
L 304.0128 275.20704 
L 307.584 273.43296 
L 311.1552 276.09408 
L 314.7264 272.1024 
L 318.2976 281.41632 
L 321.8688 283.1904 
L 325.44 278.31168 
L 329.0112 277.42464 
L 332.5824 275.20704 
L 336.1536 281.85984 
L 339.7248 270.77184 
L 343.296 281.85984 
L 346.8672 280.52928 
L 350.4384 277.86816 
L 354.0096 275.65056 
L 357.5808 280.52928 
L 361.152 281.41632 
L 364.7232 274.32 
L 368.2944 281.41632 
L 371.8656 274.32 
L 375.4368 278.7552 
L 379.008 283.1904 
L 382.5792 285.408 
L 386.1504 280.08576 
L 389.7216 282.74688 
L 393.2928 274.32 
L 396.864 266.78016 
L 400.4352 280.52928 
L 404.0064 277.86816 
L 407.5776 271.65888 
L 411.1488 278.7552 
" clip-path="url(#p49efff7b4b)" style="fill: none; stroke: #ff7f0e; stroke-width: 1.5; stroke-linecap: square"/>
   </g>
   <g id="line2d_16">
    <path d="M 61.1712 99.57312 
L 64.7424 100.90368 
L 68.3136 113.32224 
L 71.8848 100.01664 
L 75.456 111.54816 
L 79.0272 113.76576 
L 82.5984 115.09632 
L 86.1696 119.53152 
L 89.7408 133.28064 
L 93.312 111.10464 
L 96.8832 110.2176 
L 100.4544 113.32224 
L 104.0256 120.41856 
L 107.5968 124.41024 
L 111.168 109.77408 
L 114.7392 118.64448 
L 118.3104 123.07968 
L 121.8816 120.41856 
L 125.4528 97.79904 
L 129.024 106.66944 
L 132.5952 123.5232 
L 136.1664 115.98336 
L 139.7376 120.41856 
L 143.3088 119.97504 
L 146.88 115.09632 
L 150.4512 127.9584 
L 154.0224 133.28064 
L 157.5936 123.96672 
L 161.1648 117.31392 
L 164.736 112.4352 
L 168.3072 129.28896 
L 171.8784 128.40192 
L 175.4496 110.2176 
L 179.0208 130.61952 
L 182.592 134.6112 
L 186.1632 111.10464 
L 189.7344 119.97504 
L 193.3056 115.53984 
L 196.8768 109.77408 
L 200.448 115.98336 
L 204.0192 115.53984 
L 207.5904 125.7408 
L 211.1616 115.53984 
L 214.7328 135.94176 
L 218.304 119.97504 
L 221.8752 123.96672 
L 225.4464 131.06304 
L 229.0176 127.07136 
L 232.5888 148.36032 
L 236.16 143.4816 
L 239.7312 160.33536 
L 243.3024 167.43168 
L 246.8736 151.90848 
L 250.4448 164.77056 
L 254.016 146.14272 
L 257.5872 152.79552 
L 261.1584 136.38528 
L 264.7296 154.5696 
L 268.3008 151.90848 
L 271.872 132.3936 
L 275.4432 139.0464 
L 279.0144 156.34368 
L 282.5856 127.51488 
L 286.1568 144.36864 
L 289.728 114.6528 
L 293.2992 119.088 
L 296.8704 141.70752 
L 300.4416 130.176 
L 304.0128 146.14272 
L 307.584 148.36032 
L 311.1552 166.10112 
L 314.7264 146.58624 
L 318.2976 176.30208 
L 321.8688 184.72896 
L 325.44 163.88352 
L 329.0112 156.7872 
L 332.5824 169.64928 
L 336.1536 174.97152 
L 339.7248 141.264 
L 343.296 152.79552 
L 346.8672 172.3104 
L 350.4384 156.34368 
L 354.0096 144.81216 
L 357.5808 166.10112 
L 361.152 170.97984 
L 364.7232 141.264 
L 368.2944 157.23072 
L 371.8656 149.69088 
L 375.4368 150.1344 
L 379.008 158.11776 
L 382.5792 185.616 
L 386.1504 149.69088 
L 389.7216 162.10944 
L 393.2928 131.95008 
L 396.864 109.33056 
L 400.4352 142.59456 
L 404.0064 143.03808 
L 407.5776 124.85376 
L 411.1488 146.14272 
" clip-path="url(#p49efff7b4b)" style="fill: none; stroke: #2ca02c; stroke-width: 1.5; stroke-linecap: square"/>
   </g>
   <g id="line2d_17">
    <path d="M 61.1712 196.704 
L 64.7424 192.71232 
L 68.3136 202.02624 
L 71.8848 193.15584 
L 75.456 202.91328 
L 79.0272 211.78368 
L 82.5984 211.34016 
L 86.1696 216.21888 
L 89.7408 216.21888 
L 93.312 208.67904 
L 96.8832 202.02624 
L 100.4544 211.34016 
L 104.0256 217.10592 
L 107.5968 208.67904 
L 111.168 206.46144 
L 114.7392 208.23552 
L 118.3104 217.99296 
L 121.8816 221.54112 
L 125.4528 202.91328 
L 129.024 202.46976 
L 132.5952 212.2272 
L 136.1664 206.90496 
L 139.7376 220.21056 
L 143.3088 211.78368 
L 146.88 216.6624 
L 150.4512 223.3152 
L 154.0224 222.42816 
L 157.5936 225.97632 
L 161.1648 204.24384 
L 164.736 197.59104 
L 168.3072 223.75872 
L 171.8784 229.52448 
L 175.4496 207.792 
L 179.0208 215.33184 
L 182.592 221.54112 
L 186.1632 204.24384 
L 189.7344 210.45312 
L 193.3056 207.34848 
L 196.8768 206.46144 
L 200.448 207.34848 
L 204.0192 206.01792 
L 207.5904 214.00128 
L 211.1616 203.80032 
L 214.7328 217.10592 
L 218.304 209.12256 
L 221.8752 216.21888 
L 225.4464 230.41152 
L 229.0176 208.67904 
L 232.5888 237.95136 
L 236.16 225.97632 
L 239.7312 225.97632 
L 243.3024 240.61248 
L 246.8736 226.41984 
L 250.4448 238.39488 
L 254.016 228.63744 
L 257.5872 242.38656 
L 261.1584 229.968 
L 264.7296 236.17728 
L 268.3008 231.74208 
L 271.872 226.86336 
L 275.4432 224.64576 
L 279.0144 241.49952 
L 282.5856 221.98464 
L 286.1568 228.63744 
L 289.728 207.34848 
L 293.2992 219.76704 
L 296.8704 227.7504 
L 300.4416 225.97632 
L 304.0128 233.95968 
L 307.584 235.29024 
L 311.1552 238.39488 
L 314.7264 223.3152 
L 318.2976 244.16064 
L 321.8688 248.59584 
L 325.44 240.16896 
L 329.0112 238.8384 
L 332.5824 236.17728 
L 336.1536 243.2736 
L 339.7248 229.52448 
L 343.296 243.2736 
L 346.8672 249.03936 
L 350.4384 237.95136 
L 354.0096 234.84672 
L 357.5808 244.60416 
L 361.152 255.69216 
L 364.7232 230.41152 
L 368.2944 241.94304 
L 371.8656 233.07264 
L 375.4368 240.61248 
L 379.008 240.16896 
L 382.5792 248.59584 
L 386.1504 240.16896 
L 389.7216 247.26528 
L 393.2928 228.19392 
L 396.864 214.00128 
L 400.4352 241.056 
L 404.0064 234.84672 
L 407.5776 225.08928 
L 411.1488 243.2736 
" clip-path="url(#p49efff7b4b)" style="fill: none; stroke: #d62728; stroke-width: 1.5; stroke-linecap: square"/>
   </g>
   <g id="patch_3">
    <path d="M 57.6 307.584 
L 57.6 41.472 
" style="fill: none; stroke: #000000; stroke-width: 0.8; stroke-linejoin: miter; stroke-linecap: square"/>
   </g>
   <g id="patch_4">
    <path d="M 414.72 307.584 
L 414.72 41.472 
" style="fill: none; stroke: #000000; stroke-width: 0.8; stroke-linejoin: miter; stroke-linecap: square"/>
   </g>
   <g id="patch_5">
    <path d="M 57.6 307.584 
L 414.72 307.584 
" style="fill: none; stroke: #000000; stroke-width: 0.8; stroke-linejoin: miter; stroke-linecap: square"/>
   </g>
   <g id="patch_6">
    <path d="M 57.6 41.472 
L 414.72 41.472 
" style="fill: none; stroke: #000000; stroke-width: 0.8; stroke-linejoin: miter; stroke-linecap: square"/>
   </g>
  </g>
  <g id="legend_1">
   <g id="patch_7">
    <path d="M 214.803125 66.7125 
L 453.8 66.7125 
Q 455.8 66.7125 455.8 64.7125 
L 455.8 7 
Q 455.8 5 453.8 5 
L 214.803125 5 
Q 212.803125 5 212.803125 7 
L 212.803125 64.7125 
Q 212.803125 66.7125 214.803125 66.7125 
z
" style="fill: #ffffff; opacity: 0.8; stroke: #cccccc; stroke-linejoin: miter"/>
   </g>
   <g id="line2d_18">
    <path d="M 216.803125 13.098438 
L 226.803125 13.098438 
L 236.803125 13.098438 
" style="fill: none; stroke: #1f77b4; stroke-width: 1.5; stroke-linecap: square"/>
   </g>
   <g id="text_16">
    <!-- Number of Unfair Explanations in L -->
    <g transform="translate(244.803125 16.598438)scale(0.1 -0.1)">
     <defs>
      <path id="DejaVuSans-4e" d="M 628 4666 
L 1478 4666 
L 3547 763 
L 3547 4666 
L 4159 4666 
L 4159 0 
L 3309 0 
L 1241 3903 
L 1241 0 
L 628 0 
L 628 4666 
z
" transform="scale(0.015625)"/>
      <path id="DejaVuSans-6d" d="M 3328 2828 
Q 3544 3216 3844 3400 
Q 4144 3584 4550 3584 
Q 5097 3584 5394 3201 
Q 5691 2819 5691 2113 
L 5691 0 
L 5113 0 
L 5113 2094 
Q 5113 2597 4934 2840 
Q 4756 3084 4391 3084 
Q 3944 3084 3684 2787 
Q 3425 2491 3425 1978 
L 3425 0 
L 2847 0 
L 2847 2094 
Q 2847 2600 2669 2842 
Q 2491 3084 2119 3084 
Q 1678 3084 1418 2786 
Q 1159 2488 1159 1978 
L 1159 0 
L 581 0 
L 581 3500 
L 1159 3500 
L 1159 2956 
Q 1356 3278 1631 3431 
Q 1906 3584 2284 3584 
Q 2666 3584 2933 3390 
Q 3200 3197 3328 2828 
z
" transform="scale(0.015625)"/>
      <path id="DejaVuSans-62" d="M 3116 1747 
Q 3116 2381 2855 2742 
Q 2594 3103 2138 3103 
Q 1681 3103 1420 2742 
Q 1159 2381 1159 1747 
Q 1159 1113 1420 752 
Q 1681 391 2138 391 
Q 2594 391 2855 752 
Q 3116 1113 3116 1747 
z
M 1159 2969 
Q 1341 3281 1617 3432 
Q 1894 3584 2278 3584 
Q 2916 3584 3314 3078 
Q 3713 2572 3713 1747 
Q 3713 922 3314 415 
Q 2916 -91 2278 -91 
Q 1894 -91 1617 61 
Q 1341 213 1159 525 
L 1159 0 
L 581 0 
L 581 4863 
L 1159 4863 
L 1159 2969 
z
" transform="scale(0.015625)"/>
      <path id="DejaVuSans-20" transform="scale(0.015625)"/>
      <path id="DejaVuSans-66" d="M 2375 4863 
L 2375 4384 
L 1825 4384 
Q 1516 4384 1395 4259 
Q 1275 4134 1275 3809 
L 1275 3500 
L 2222 3500 
L 2222 3053 
L 1275 3053 
L 1275 0 
L 697 0 
L 697 3053 
L 147 3053 
L 147 3500 
L 697 3500 
L 697 3744 
Q 697 4328 969 4595 
Q 1241 4863 1831 4863 
L 2375 4863 
z
" transform="scale(0.015625)"/>
      <path id="DejaVuSans-55" d="M 556 4666 
L 1191 4666 
L 1191 1831 
Q 1191 1081 1462 751 
Q 1734 422 2344 422 
Q 2950 422 3222 751 
Q 3494 1081 3494 1831 
L 3494 4666 
L 4128 4666 
L 4128 1753 
Q 4128 841 3676 375 
Q 3225 -91 2344 -91 
Q 1459 -91 1007 375 
Q 556 841 556 1753 
L 556 4666 
z
" transform="scale(0.015625)"/>
      <path id="DejaVuSans-45" d="M 628 4666 
L 3578 4666 
L 3578 4134 
L 1259 4134 
L 1259 2753 
L 3481 2753 
L 3481 2222 
L 1259 2222 
L 1259 531 
L 3634 531 
L 3634 0 
L 628 0 
L 628 4666 
z
" transform="scale(0.015625)"/>
      <path id="DejaVuSans-78" d="M 3513 3500 
L 2247 1797 
L 3578 0 
L 2900 0 
L 1881 1375 
L 863 0 
L 184 0 
L 1544 1831 
L 300 3500 
L 978 3500 
L 1906 2253 
L 2834 3500 
L 3513 3500 
z
" transform="scale(0.015625)"/>
      <path id="DejaVuSans-70" d="M 1159 525 
L 1159 -1331 
L 581 -1331 
L 581 3500 
L 1159 3500 
L 1159 2969 
Q 1341 3281 1617 3432 
Q 1894 3584 2278 3584 
Q 2916 3584 3314 3078 
Q 3713 2572 3713 1747 
Q 3713 922 3314 415 
Q 2916 -91 2278 -91 
Q 1894 -91 1617 61 
Q 1341 213 1159 525 
z
M 3116 1747 
Q 3116 2381 2855 2742 
Q 2594 3103 2138 3103 
Q 1681 3103 1420 2742 
Q 1159 2381 1159 1747 
Q 1159 1113 1420 752 
Q 1681 391 2138 391 
Q 2594 391 2855 752 
Q 3116 1113 3116 1747 
z
" transform="scale(0.015625)"/>
      <path id="DejaVuSans-6c" d="M 603 4863 
L 1178 4863 
L 1178 0 
L 603 0 
L 603 4863 
z
" transform="scale(0.015625)"/>
      <path id="DejaVuSans-4c" d="M 628 4666 
L 1259 4666 
L 1259 531 
L 3531 531 
L 3531 0 
L 628 0 
L 628 4666 
z
" transform="scale(0.015625)"/>
     </defs>
     <use xlink:href="#DejaVuSans-4e"/>
     <use xlink:href="#DejaVuSans-75" x="74.804688"/>
     <use xlink:href="#DejaVuSans-6d" x="138.183594"/>
     <use xlink:href="#DejaVuSans-62" x="235.595703"/>
     <use xlink:href="#DejaVuSans-65" x="299.072266"/>
     <use xlink:href="#DejaVuSans-72" x="360.595703"/>
     <use xlink:href="#DejaVuSans-20" x="401.708984"/>
     <use xlink:href="#DejaVuSans-6f" x="433.496094"/>
     <use xlink:href="#DejaVuSans-66" x="494.677734"/>
     <use xlink:href="#DejaVuSans-20" x="529.882812"/>
     <use xlink:href="#DejaVuSans-55" x="561.669922"/>
     <use xlink:href="#DejaVuSans-6e" x="634.863281"/>
     <use xlink:href="#DejaVuSans-66" x="698.242188"/>
     <use xlink:href="#DejaVuSans-61" x="733.447266"/>
     <use xlink:href="#DejaVuSans-69" x="794.726562"/>
     <use xlink:href="#DejaVuSans-72" x="822.509766"/>
     <use xlink:href="#DejaVuSans-20" x="863.623047"/>
     <use xlink:href="#DejaVuSans-45" x="895.410156"/>
     <use xlink:href="#DejaVuSans-78" x="958.59375"/>
     <use xlink:href="#DejaVuSans-70" x="1017.773438"/>
     <use xlink:href="#DejaVuSans-6c" x="1081.25"/>
     <use xlink:href="#DejaVuSans-61" x="1109.033203"/>
     <use xlink:href="#DejaVuSans-6e" x="1170.3125"/>
     <use xlink:href="#DejaVuSans-61" x="1233.691406"/>
     <use xlink:href="#DejaVuSans-74" x="1294.970703"/>
     <use xlink:href="#DejaVuSans-69" x="1334.179688"/>
     <use xlink:href="#DejaVuSans-6f" x="1361.962891"/>
     <use xlink:href="#DejaVuSans-6e" x="1423.144531"/>
     <use xlink:href="#DejaVuSans-73" x="1486.523438"/>
     <use xlink:href="#DejaVuSans-20" x="1538.623047"/>
     <use xlink:href="#DejaVuSans-69" x="1570.410156"/>
     <use xlink:href="#DejaVuSans-6e" x="1598.193359"/>
     <use xlink:href="#DejaVuSans-20" x="1661.572266"/>
     <use xlink:href="#DejaVuSans-4c" x="1693.359375"/>
    </g>
   </g>
   <g id="line2d_19">
    <path d="M 216.803125 27.776563 
L 226.803125 27.776563 
L 236.803125 27.776563 
" style="fill: none; stroke: #ff7f0e; stroke-width: 1.5; stroke-linecap: square"/>
   </g>
   <g id="text_17">
    <!-- Number of Unfair Explanations in test set -->
    <g transform="translate(244.803125 31.276563)scale(0.1 -0.1)">
     <use xlink:href="#DejaVuSans-4e"/>
     <use xlink:href="#DejaVuSans-75" x="74.804688"/>
     <use xlink:href="#DejaVuSans-6d" x="138.183594"/>
     <use xlink:href="#DejaVuSans-62" x="235.595703"/>
     <use xlink:href="#DejaVuSans-65" x="299.072266"/>
     <use xlink:href="#DejaVuSans-72" x="360.595703"/>
     <use xlink:href="#DejaVuSans-20" x="401.708984"/>
     <use xlink:href="#DejaVuSans-6f" x="433.496094"/>
     <use xlink:href="#DejaVuSans-66" x="494.677734"/>
     <use xlink:href="#DejaVuSans-20" x="529.882812"/>
     <use xlink:href="#DejaVuSans-55" x="561.669922"/>
     <use xlink:href="#DejaVuSans-6e" x="634.863281"/>
     <use xlink:href="#DejaVuSans-66" x="698.242188"/>
     <use xlink:href="#DejaVuSans-61" x="733.447266"/>
     <use xlink:href="#DejaVuSans-69" x="794.726562"/>
     <use xlink:href="#DejaVuSans-72" x="822.509766"/>
     <use xlink:href="#DejaVuSans-20" x="863.623047"/>
     <use xlink:href="#DejaVuSans-45" x="895.410156"/>
     <use xlink:href="#DejaVuSans-78" x="958.59375"/>
     <use xlink:href="#DejaVuSans-70" x="1017.773438"/>
     <use xlink:href="#DejaVuSans-6c" x="1081.25"/>
     <use xlink:href="#DejaVuSans-61" x="1109.033203"/>
     <use xlink:href="#DejaVuSans-6e" x="1170.3125"/>
     <use xlink:href="#DejaVuSans-61" x="1233.691406"/>
     <use xlink:href="#DejaVuSans-74" x="1294.970703"/>
     <use xlink:href="#DejaVuSans-69" x="1334.179688"/>
     <use xlink:href="#DejaVuSans-6f" x="1361.962891"/>
     <use xlink:href="#DejaVuSans-6e" x="1423.144531"/>
     <use xlink:href="#DejaVuSans-73" x="1486.523438"/>
     <use xlink:href="#DejaVuSans-20" x="1538.623047"/>
     <use xlink:href="#DejaVuSans-69" x="1570.410156"/>
     <use xlink:href="#DejaVuSans-6e" x="1598.193359"/>
     <use xlink:href="#DejaVuSans-20" x="1661.572266"/>
     <use xlink:href="#DejaVuSans-74" x="1693.359375"/>
     <use xlink:href="#DejaVuSans-65" x="1732.568359"/>
     <use xlink:href="#DejaVuSans-73" x="1794.091797"/>
     <use xlink:href="#DejaVuSans-74" x="1846.191406"/>
     <use xlink:href="#DejaVuSans-20" x="1885.400391"/>
     <use xlink:href="#DejaVuSans-73" x="1917.1875"/>
     <use xlink:href="#DejaVuSans-65" x="1969.287109"/>
     <use xlink:href="#DejaVuSans-74" x="2030.810547"/>
    </g>
   </g>
   <g id="line2d_20">
    <path d="M 216.803125 42.454688 
L 226.803125 42.454688 
L 236.803125 42.454688 
" style="fill: none; stroke: #2ca02c; stroke-width: 1.5; stroke-linecap: square"/>
   </g>
   <g id="text_18">
    <!-- Number of DN or FP group in L -->
    <g transform="translate(244.803125 45.954688)scale(0.1 -0.1)">
     <defs>
      <path id="DejaVuSans-44" d="M 1259 4147 
L 1259 519 
L 2022 519 
Q 2988 519 3436 956 
Q 3884 1394 3884 2338 
Q 3884 3275 3436 3711 
Q 2988 4147 2022 4147 
L 1259 4147 
z
M 628 4666 
L 1925 4666 
Q 3281 4666 3915 4102 
Q 4550 3538 4550 2338 
Q 4550 1131 3912 565 
Q 3275 0 1925 0 
L 628 0 
L 628 4666 
z
" transform="scale(0.015625)"/>
      <path id="DejaVuSans-46" d="M 628 4666 
L 3309 4666 
L 3309 4134 
L 1259 4134 
L 1259 2759 
L 3109 2759 
L 3109 2228 
L 1259 2228 
L 1259 0 
L 628 0 
L 628 4666 
z
" transform="scale(0.015625)"/>
      <path id="DejaVuSans-50" d="M 1259 4147 
L 1259 2394 
L 2053 2394 
Q 2494 2394 2734 2622 
Q 2975 2850 2975 3272 
Q 2975 3691 2734 3919 
Q 2494 4147 2053 4147 
L 1259 4147 
z
M 628 4666 
L 2053 4666 
Q 2838 4666 3239 4311 
Q 3641 3956 3641 3272 
Q 3641 2581 3239 2228 
Q 2838 1875 2053 1875 
L 1259 1875 
L 1259 0 
L 628 0 
L 628 4666 
z
" transform="scale(0.015625)"/>
      <path id="DejaVuSans-67" d="M 2906 1791 
Q 2906 2416 2648 2759 
Q 2391 3103 1925 3103 
Q 1463 3103 1205 2759 
Q 947 2416 947 1791 
Q 947 1169 1205 825 
Q 1463 481 1925 481 
Q 2391 481 2648 825 
Q 2906 1169 2906 1791 
z
M 3481 434 
Q 3481 -459 3084 -895 
Q 2688 -1331 1869 -1331 
Q 1566 -1331 1297 -1286 
Q 1028 -1241 775 -1147 
L 775 -588 
Q 1028 -725 1275 -790 
Q 1522 -856 1778 -856 
Q 2344 -856 2625 -561 
Q 2906 -266 2906 331 
L 2906 616 
Q 2728 306 2450 153 
Q 2172 0 1784 0 
Q 1141 0 747 490 
Q 353 981 353 1791 
Q 353 2603 747 3093 
Q 1141 3584 1784 3584 
Q 2172 3584 2450 3431 
Q 2728 3278 2906 2969 
L 2906 3500 
L 3481 3500 
L 3481 434 
z
" transform="scale(0.015625)"/>
     </defs>
     <use xlink:href="#DejaVuSans-4e"/>
     <use xlink:href="#DejaVuSans-75" x="74.804688"/>
     <use xlink:href="#DejaVuSans-6d" x="138.183594"/>
     <use xlink:href="#DejaVuSans-62" x="235.595703"/>
     <use xlink:href="#DejaVuSans-65" x="299.072266"/>
     <use xlink:href="#DejaVuSans-72" x="360.595703"/>
     <use xlink:href="#DejaVuSans-20" x="401.708984"/>
     <use xlink:href="#DejaVuSans-6f" x="433.496094"/>
     <use xlink:href="#DejaVuSans-66" x="494.677734"/>
     <use xlink:href="#DejaVuSans-20" x="529.882812"/>
     <use xlink:href="#DejaVuSans-44" x="561.669922"/>
     <use xlink:href="#DejaVuSans-4e" x="638.671875"/>
     <use xlink:href="#DejaVuSans-20" x="713.476562"/>
     <use xlink:href="#DejaVuSans-6f" x="745.263672"/>
     <use xlink:href="#DejaVuSans-72" x="806.445312"/>
     <use xlink:href="#DejaVuSans-20" x="847.558594"/>
     <use xlink:href="#DejaVuSans-46" x="879.345703"/>
     <use xlink:href="#DejaVuSans-50" x="936.865234"/>
     <use xlink:href="#DejaVuSans-20" x="997.167969"/>
     <use xlink:href="#DejaVuSans-67" x="1028.955078"/>
     <use xlink:href="#DejaVuSans-72" x="1092.431641"/>
     <use xlink:href="#DejaVuSans-6f" x="1131.294922"/>
     <use xlink:href="#DejaVuSans-75" x="1192.476562"/>
     <use xlink:href="#DejaVuSans-70" x="1255.855469"/>
     <use xlink:href="#DejaVuSans-20" x="1319.332031"/>
     <use xlink:href="#DejaVuSans-69" x="1351.119141"/>
     <use xlink:href="#DejaVuSans-6e" x="1378.902344"/>
     <use xlink:href="#DejaVuSans-20" x="1442.28125"/>
     <use xlink:href="#DejaVuSans-4c" x="1474.068359"/>
    </g>
   </g>
   <g id="line2d_21">
    <path d="M 216.803125 57.132813 
L 226.803125 57.132813 
L 236.803125 57.132813 
" style="fill: none; stroke: #d62728; stroke-width: 1.5; stroke-linecap: square"/>
   </g>
   <g id="text_19">
    <!-- Number of DN or FP group in test set -->
    <g transform="translate(244.803125 60.632813)scale(0.1 -0.1)">
     <use xlink:href="#DejaVuSans-4e"/>
     <use xlink:href="#DejaVuSans-75" x="74.804688"/>
     <use xlink:href="#DejaVuSans-6d" x="138.183594"/>
     <use xlink:href="#DejaVuSans-62" x="235.595703"/>
     <use xlink:href="#DejaVuSans-65" x="299.072266"/>
     <use xlink:href="#DejaVuSans-72" x="360.595703"/>
     <use xlink:href="#DejaVuSans-20" x="401.708984"/>
     <use xlink:href="#DejaVuSans-6f" x="433.496094"/>
     <use xlink:href="#DejaVuSans-66" x="494.677734"/>
     <use xlink:href="#DejaVuSans-20" x="529.882812"/>
     <use xlink:href="#DejaVuSans-44" x="561.669922"/>
     <use xlink:href="#DejaVuSans-4e" x="638.671875"/>
     <use xlink:href="#DejaVuSans-20" x="713.476562"/>
     <use xlink:href="#DejaVuSans-6f" x="745.263672"/>
     <use xlink:href="#DejaVuSans-72" x="806.445312"/>
     <use xlink:href="#DejaVuSans-20" x="847.558594"/>
     <use xlink:href="#DejaVuSans-46" x="879.345703"/>
     <use xlink:href="#DejaVuSans-50" x="936.865234"/>
     <use xlink:href="#DejaVuSans-20" x="997.167969"/>
     <use xlink:href="#DejaVuSans-67" x="1028.955078"/>
     <use xlink:href="#DejaVuSans-72" x="1092.431641"/>
     <use xlink:href="#DejaVuSans-6f" x="1131.294922"/>
     <use xlink:href="#DejaVuSans-75" x="1192.476562"/>
     <use xlink:href="#DejaVuSans-70" x="1255.855469"/>
     <use xlink:href="#DejaVuSans-20" x="1319.332031"/>
     <use xlink:href="#DejaVuSans-69" x="1351.119141"/>
     <use xlink:href="#DejaVuSans-6e" x="1378.902344"/>
     <use xlink:href="#DejaVuSans-20" x="1442.28125"/>
     <use xlink:href="#DejaVuSans-74" x="1474.068359"/>
     <use xlink:href="#DejaVuSans-65" x="1513.277344"/>
     <use xlink:href="#DejaVuSans-73" x="1574.800781"/>
     <use xlink:href="#DejaVuSans-74" x="1626.900391"/>
     <use xlink:href="#DejaVuSans-20" x="1666.109375"/>
     <use xlink:href="#DejaVuSans-73" x="1697.896484"/>
     <use xlink:href="#DejaVuSans-65" x="1749.996094"/>
     <use xlink:href="#DejaVuSans-74" x="1811.519531"/>
    </g>
   </g>
  </g>
 </g>
 <defs>
  <clipPath id="p49efff7b4b">
   <rect x="57.6" y="41.472" width="357.12" height="266.112"/>
  </clipPath>
 </defs>
</svg>
